<mxfile host="Electron" agent="Mozilla/5.0 (Windows NT 10.0; Win64; x64) AppleWebKit/537.36 (KHTML, like Gecko) draw.io/24.7.8 Chrome/128.0.6613.36 Electron/32.0.1 Safari/537.36" version="24.7.8">
  <diagram name="4_Reverse_Num_Str" id="e5m4TzReDYiX07p-gSJK">
    <mxGraphModel dx="3190" dy="1515" grid="1" gridSize="10" guides="1" tooltips="1" connect="1" arrows="1" fold="1" page="1" pageScale="1" pageWidth="850" pageHeight="1100" math="0" shadow="0">
      <root>
        <mxCell id="0" />
        <mxCell id="1" parent="0" />
        <mxCell id="enmezmWXNxL0q6qQE_os-22" value="Start Program" style="whiteSpace=wrap;strokeWidth=2;" vertex="1" parent="1">
          <mxGeometry x="799.5" y="390" width="114" height="33" as="geometry" />
        </mxCell>
        <mxCell id="enmezmWXNxL0q6qQE_os-23" value="Define reverse function that takes input value" style="whiteSpace=wrap;strokeWidth=2;" vertex="1" parent="1">
          <mxGeometry x="683.5" y="473" width="347" height="33" as="geometry" />
        </mxCell>
        <mxCell id="enmezmWXNxL0q6qQE_os-24" value="Convert value to string and reverse using slicing ([::-1])" style="whiteSpace=wrap;strokeWidth=2;" vertex="1" parent="1">
          <mxGeometry x="676.5" y="557" width="359" height="33" as="geometry" />
        </mxCell>
        <mxCell id="enmezmWXNxL0q6qQE_os-25" value="Return the reversed string" style="whiteSpace=wrap;strokeWidth=2;" vertex="1" parent="1">
          <mxGeometry x="755.5" y="640" width="203" height="33" as="geometry" />
        </mxCell>
        <mxCell id="enmezmWXNxL0q6qQE_os-26" value="Start main program" style="whiteSpace=wrap;strokeWidth=2;" vertex="1" parent="1">
          <mxGeometry x="779.5" y="724" width="154" height="33" as="geometry" />
        </mxCell>
        <mxCell id="enmezmWXNxL0q6qQE_os-27" value="Ask user to enter number or string" style="whiteSpace=wrap;strokeWidth=2;" vertex="1" parent="1">
          <mxGeometry x="725.5" y="807" width="262" height="33" as="geometry" />
        </mxCell>
        <mxCell id="enmezmWXNxL0q6qQE_os-28" value="Remove extra spaces using strip" style="whiteSpace=wrap;strokeWidth=2;" vertex="1" parent="1">
          <mxGeometry x="874.5" y="890" width="244" height="33" as="geometry" />
        </mxCell>
        <mxCell id="enmezmWXNxL0q6qQE_os-29" value="Is input empty?" style="rhombus;strokeWidth=2;whiteSpace=wrap;" vertex="1" parent="1">
          <mxGeometry x="917.5" y="974" width="158" height="158" as="geometry" />
        </mxCell>
        <mxCell id="enmezmWXNxL0q6qQE_os-30" value="Print error: Input cannot be empty" style="whiteSpace=wrap;strokeWidth=2;" vertex="1" parent="1">
          <mxGeometry x="563.5" y="1200" width="265" height="33" as="geometry" />
        </mxCell>
        <mxCell id="enmezmWXNxL0q6qQE_os-31" value="Call reverse function with user input" style="whiteSpace=wrap;strokeWidth=2;" vertex="1" parent="1">
          <mxGeometry x="878.5" y="1200" width="278" height="33" as="geometry" />
        </mxCell>
        <mxCell id="enmezmWXNxL0q6qQE_os-32" value="Store result in reverse_result" style="whiteSpace=wrap;strokeWidth=2;" vertex="1" parent="1">
          <mxGeometry x="905.5" y="1283" width="224" height="33" as="geometry" />
        </mxCell>
        <mxCell id="enmezmWXNxL0q6qQE_os-33" value="Print reversed value to user" style="whiteSpace=wrap;strokeWidth=2;" vertex="1" parent="1">
          <mxGeometry x="909.5" y="1367" width="215" height="33" as="geometry" />
        </mxCell>
        <mxCell id="enmezmWXNxL0q6qQE_os-50" value="" style="edgeStyle=orthogonalEdgeStyle;rounded=0;orthogonalLoop=1;jettySize=auto;html=1;" edge="1" parent="1" source="enmezmWXNxL0q6qQE_os-34" target="enmezmWXNxL0q6qQE_os-49">
          <mxGeometry relative="1" as="geometry" />
        </mxCell>
        <mxCell id="enmezmWXNxL0q6qQE_os-34" value="End Program" style="whiteSpace=wrap;strokeWidth=2;" vertex="1" parent="1">
          <mxGeometry x="964.5" y="1450" width="105" height="33" as="geometry" />
        </mxCell>
        <mxCell id="enmezmWXNxL0q6qQE_os-35" value="" style="curved=1;startArrow=none;endArrow=block;exitX=0.5;exitY=1.01;entryX=0.5;entryY=0.01;rounded=0;" edge="1" parent="1" source="enmezmWXNxL0q6qQE_os-22" target="enmezmWXNxL0q6qQE_os-23">
          <mxGeometry relative="1" as="geometry">
            <Array as="points" />
          </mxGeometry>
        </mxCell>
        <mxCell id="enmezmWXNxL0q6qQE_os-36" value="" style="curved=1;startArrow=none;endArrow=block;exitX=0.5;exitY=1.02;entryX=0.5;entryY=-0.01;rounded=0;" edge="1" parent="1" source="enmezmWXNxL0q6qQE_os-23" target="enmezmWXNxL0q6qQE_os-24">
          <mxGeometry relative="1" as="geometry">
            <Array as="points" />
          </mxGeometry>
        </mxCell>
        <mxCell id="enmezmWXNxL0q6qQE_os-37" value="" style="curved=1;startArrow=none;endArrow=block;exitX=0.5;exitY=1.01;entryX=0.5;entryY=0.01;rounded=0;" edge="1" parent="1" source="enmezmWXNxL0q6qQE_os-24" target="enmezmWXNxL0q6qQE_os-25">
          <mxGeometry relative="1" as="geometry">
            <Array as="points" />
          </mxGeometry>
        </mxCell>
        <mxCell id="enmezmWXNxL0q6qQE_os-38" value="" style="curved=1;startArrow=none;endArrow=block;exitX=0.5;exitY=1.02;entryX=0.5;entryY=-0.01;rounded=0;" edge="1" parent="1" source="enmezmWXNxL0q6qQE_os-25" target="enmezmWXNxL0q6qQE_os-26">
          <mxGeometry relative="1" as="geometry">
            <Array as="points" />
          </mxGeometry>
        </mxCell>
        <mxCell id="enmezmWXNxL0q6qQE_os-39" value="" style="curved=1;startArrow=none;endArrow=block;exitX=0.5;exitY=1;entryX=0.5;entryY=0;rounded=0;" edge="1" parent="1" source="enmezmWXNxL0q6qQE_os-26" target="enmezmWXNxL0q6qQE_os-27">
          <mxGeometry relative="1" as="geometry">
            <Array as="points" />
          </mxGeometry>
        </mxCell>
        <mxCell id="enmezmWXNxL0q6qQE_os-40" value="" style="curved=1;startArrow=none;endArrow=block;exitX=0.71;exitY=1.01;entryX=0.5;entryY=0.01;rounded=0;" edge="1" parent="1" source="enmezmWXNxL0q6qQE_os-27" target="enmezmWXNxL0q6qQE_os-28">
          <mxGeometry relative="1" as="geometry">
            <Array as="points">
              <mxPoint x="996.5" y="865" />
            </Array>
          </mxGeometry>
        </mxCell>
        <mxCell id="enmezmWXNxL0q6qQE_os-41" value="" style="curved=1;startArrow=none;endArrow=block;exitX=0.5;exitY=1.02;entryX=0.5;entryY=0;rounded=0;" edge="1" parent="1" source="enmezmWXNxL0q6qQE_os-28" target="enmezmWXNxL0q6qQE_os-29">
          <mxGeometry relative="1" as="geometry">
            <Array as="points" />
          </mxGeometry>
        </mxCell>
        <mxCell id="enmezmWXNxL0q6qQE_os-42" value="Yes" style="curved=1;startArrow=none;endArrow=block;exitX=0;exitY=0.85;entryX=0.67;entryY=0;rounded=0;" edge="1" parent="1" source="enmezmWXNxL0q6qQE_os-29" target="enmezmWXNxL0q6qQE_os-30">
          <mxGeometry relative="1" as="geometry">
            <Array as="points">
              <mxPoint x="835.5" y="1166" />
            </Array>
          </mxGeometry>
        </mxCell>
        <mxCell id="enmezmWXNxL0q6qQE_os-43" value="" style="curved=1;startArrow=none;endArrow=block;exitX=0.48;exitY=0;entryX=0.23;entryY=1.01;rounded=0;" edge="1" parent="1" source="enmezmWXNxL0q6qQE_os-30" target="enmezmWXNxL0q6qQE_os-27">
          <mxGeometry relative="1" as="geometry">
            <Array as="points">
              <mxPoint x="679.5" y="1166" />
              <mxPoint x="679.5" y="865" />
            </Array>
          </mxGeometry>
        </mxCell>
        <mxCell id="enmezmWXNxL0q6qQE_os-44" value="No" style="curved=1;startArrow=none;endArrow=block;exitX=0.59;exitY=1;entryX=0.5;entryY=0;rounded=0;" edge="1" parent="1" source="enmezmWXNxL0q6qQE_os-29" target="enmezmWXNxL0q6qQE_os-31">
          <mxGeometry relative="1" as="geometry">
            <Array as="points">
              <mxPoint x="1017.5" y="1166" />
            </Array>
          </mxGeometry>
        </mxCell>
        <mxCell id="enmezmWXNxL0q6qQE_os-45" value="" style="curved=1;startArrow=none;endArrow=block;exitX=0.5;exitY=1.01;entryX=0.5;entryY=0.01;rounded=0;" edge="1" parent="1" source="enmezmWXNxL0q6qQE_os-31" target="enmezmWXNxL0q6qQE_os-32">
          <mxGeometry relative="1" as="geometry">
            <Array as="points" />
          </mxGeometry>
        </mxCell>
        <mxCell id="enmezmWXNxL0q6qQE_os-46" value="" style="curved=1;startArrow=none;endArrow=block;exitX=0.5;exitY=1.03;entryX=0.5;entryY=-0.01;rounded=0;" edge="1" parent="1" source="enmezmWXNxL0q6qQE_os-32" target="enmezmWXNxL0q6qQE_os-33">
          <mxGeometry relative="1" as="geometry">
            <Array as="points" />
          </mxGeometry>
        </mxCell>
        <mxCell id="enmezmWXNxL0q6qQE_os-47" value="" style="curved=1;startArrow=none;endArrow=block;exitX=0.5;exitY=1.01;entryX=0.5;entryY=0.01;rounded=0;" edge="1" parent="1" source="enmezmWXNxL0q6qQE_os-33" target="enmezmWXNxL0q6qQE_os-34">
          <mxGeometry relative="1" as="geometry">
            <Array as="points" />
          </mxGeometry>
        </mxCell>
        <mxCell id="enmezmWXNxL0q6qQE_os-48" value="&lt;font style=&quot;font-size: 24px;&quot;&gt;&lt;b&gt;4. Write a function that reverses the user defined value.&lt;/b&gt;&lt;/font&gt;" style="text;whiteSpace=wrap;html=1;" vertex="1" parent="1">
          <mxGeometry x="520" y="60" width="680" height="40" as="geometry" />
        </mxCell>
        <mxCell id="enmezmWXNxL0q6qQE_os-49" value="&lt;font style=&quot;font-size: 24px;&quot;&gt;End&lt;/font&gt;" style="ellipse;whiteSpace=wrap;html=1;fillColor=#e51400;fontColor=#ffffff;strokeColor=#B20000;" vertex="1" parent="1">
          <mxGeometry x="925.38" y="1560" width="184.25" height="83" as="geometry" />
        </mxCell>
        <mxCell id="enmezmWXNxL0q6qQE_os-52" style="edgeStyle=orthogonalEdgeStyle;rounded=0;orthogonalLoop=1;jettySize=auto;html=1;" edge="1" parent="1" source="enmezmWXNxL0q6qQE_os-51" target="enmezmWXNxL0q6qQE_os-22">
          <mxGeometry relative="1" as="geometry" />
        </mxCell>
        <mxCell id="enmezmWXNxL0q6qQE_os-51" value="&lt;font style=&quot;font-size: 24px;&quot;&gt;Start&lt;/font&gt;" style="ellipse;whiteSpace=wrap;html=1;fillColor=#008a00;fontColor=#ffffff;strokeColor=#005700;" vertex="1" parent="1">
          <mxGeometry x="764" y="200" width="184.25" height="83" as="geometry" />
        </mxCell>
        <mxCell id="enmezmWXNxL0q6qQE_os-53" value="" style="shape=image;verticalLabelPosition=bottom;labelBackgroundColor=default;verticalAlign=top;aspect=fixed;imageAspect=0;image=data:image/png,iVBORw0KGgoAAAANSUhEUgAABCgAAAHQCAYAAABjkVsvAAAAAXNSR0IArs4c6QAAAARnQU1BAACxjwv8YQUAAAAJcEhZcwAADsMAAA7DAcdvqGQAAHalSURBVHhe7f1PiBxXnvf/fvrG9v42fYWM1RKCm6NsI2phfFuImA6Gwas0wUwXpm8hbx4NhhiHfU0OaVNoIxfcsjZGWMmT6MrpJ8CMZmNTjxGlmV/gWPk3POQ4rlBfo0Uh1KmJHxKtlpGopze/3zbxXURkZmRkZFVGVv6rqvcLAqSIkydP/MmsiG+e8z2/ePLkyc/KOHPmTHYVAAAAAADAzPxfsisAAAAAAADmjQAFAAAAAABYOAIUAAAAAABg4QhQAAAAAACAhSNAAQAAAAAAFo4ABQAAAAAAWDgCFAAAAAAAYOEIUAAAAAAAgIUjQAEAAAAAABaOAAUAAAAAAFg4AhQAAAAAAGDhCFAAAAAAAICFI0ABAAAAAAAWjgAFpi9wZbmBouz6YylS4Fpyg+x6AAAAAEDalAIU93XHuKRN45I23fvZjZOL7qvlXlGzW3ey3OFhb3kFrgzbU7jTzm6Zg0gNy5BhDC6LDQ481vZOKM9edDsAAAAAYLlNKUAxA9FdNcuf63vvqV5mt2E5RQ1ZtifJkd+qqpTdfixV1Gz5ciR5tqUG3UoAAAAAINfSBigeXf+6F5hYqd/QRueb3vJ2JVMYSyBS43JNoUzV200t5hSVVG111OnES7tuZgssSEVN35EUqna5wdAXAAAAAMixpAGK+3roJf8039HfVE9ltmPpBNdVCyWzfltVuk4MqzQVxyhqus5QDwAAAAAYMlGAYje4qzvWlVReiM+1ky2Ushvdz5S/oqZ7X7vZgrMW3ZNl3JBh3IjzAUT35Frx/w3jhiz3Xu6v21H0n3Ktf+mVM4x/keX+50DZqNHfnptrIPXehvufg5vGqD8uOEn7/6Io8GUN1B+XDYYLS0Xa0xOpcS0e2nF1VHQiasgyDBmGq7zDIwVyDUOGkR0GESlouLIGcktYchtTSMIZuHF9OScsalij81dEDbnp9liW3FEHM6WyXpcpybs2Ri+K7vGyRh0vAAAAADhaCgYonuuRe0m37K+1Ez7Nbsy127iiW+XPM+Wf6qX3uW4ZN/UotXau2vdklf9DXthfFXr/oXI2eND4F5XL/yovTIdTdhV6/6qy4fceHkv2r9UdUOBtD9YhSZH/R3Xfyln9q/76MesfMlb7/6LA/WeV7T8qHKg/LmtfHg5oTNSeyNdWKMlZHT20o1TVVUeSPG3nVRJsy5Mk5+pAD4zALcuueQpT+ymF8mq2yrnRgxkLXBnl2sBxVxjKs8u5gY4B3WMQbsnPHviM4Hotvl5CT9dIXAEAAADgGCgUoNht/FdtpYZefNDLC/GxVjJlJUnRXX1bSwITzse98h/4VlKgpa3erB+pmUDSPTLCr3UrPYuHdXcqPS+82n8oNH8tv/2ROp1/UC9dgffH/kN4dE+Xa8m7OX+vducjdTofqe3/OinwR9ndgEDpnNby6pAk/UX+VlKP+Vutd5/ii9SfMVb7g1B2cr7MVP2dzj+o7f9WTvakTdieyN9SHJ8YGZ6QJFVWHUmSlxOhCLbjhg7XYcqp+2q3+7klOu046aS8a3NOOhnITZKA1tvtwfbEXSP2bc+586akUFv7RCi6vS1k7tErBQAAAACOkAIBiud6tNXtBWFprfU7nciUyNr1f0gSXVpaa17olT9R+VBr8bOq5N1bUC+KX8tv2aqUJOmXste6rfufaifPjv1eD7+W3/yr3qwUpYod5xNQOiDwS1Wv9h/kB57Bo8dxDwNJ5tq5Xj3F6s/av/1pAx0Q9EuVKhfVbF4cmGlj0vY8fhhKMnX+XGZDVmU1CSxsZ+oIFMcnHGXjE5VmS81qRaV0Q0sVJbGOuYoa1+QlSUCr6QaVKmrersscI/BQstdkSgofPs5uGlSqqtXpqNNaVMJRAAAAAJiv8QMU0X3t9MYoXNRrmc3D0gGNlrbSvSCMS/2eGD0X9HZej4yBnhrfaGOMwMhYnF8PPPiVqv8l6V3wX5IhBqleD/qj7FT+BsO40euZMKDy6/gBPDPMo//gf0Jr9i+TtRPUn7Zv+wfbI+9fVTZuyHJ9NYK/DA3tmLw9kdp7JSAZUNF63Rwe5pEM7zDr6zkP43k5KIw92jM7cSAmVK082BbDMGSU4yEZ+wYeAAAAAAC5xg9QpJw8/6vsKkiS/qr/y36vp0Hqwd/56znPcPFXarZ/Gw8/SITeH1Wz/zkOVjT+ki48F90eBOlhHvHwDlNrdvbgRGpYeTkoFqFIIAYAAAAAUNREAYrCsr0gBpYPx+iNsWDmb1P5G7KLPfCrf2X9t0myzGSYR2p4Rzo55oAC9RdWuqhm6yN12v8gv/5rmelgRe2f82epKNSeksrZXBZ7Kdlxro7eMI9keIe5pqH4RDJ1qeTIT+eg6HT6Q07mprufpuqZtgwszQOdLQAAAAA4tsYPUJRO6WTyz5cP/zywabfxbc40o6d0ovvgGv6gR8NjCpbcL/sP3uEf9511oSeVLNPb/s+BvA6D+RUmrH9SpV+qUrXVan2kdr0/SKY/FGXy9nQTP443uqEkO45QxAGc7vCONXsgH4YkRUmXBbO+nuTamJMo0PU4MjJg3ASXe3r8UKEkc9+EHQAAAABwvIwfoNAFne8NX/hWreC5JGk3uKlb3Zk6Ml5b7c7W8VTfX745GKSInutR46buNOJ6llFltZv0cle1y76Cgfb/RUHDlzs0TCKVLNP7o64/jId3mHVzqCfEZPUXEPiy3HsKonQdf9HjpE2SZJ7v5sSYvD2lJLKRNztHnlL1qpykfByE2HuminDL7+fMiAK51pRyUJw7H/d2Sc2+EQUNWWU7nvI0o5fgsnZZbiPIyeOxv9HDWTKihizDkGG5Q0lJAQAAAOAoKhCgkF5bfyfpRfFU39sfadO4pFt2S9LZXu+KAZUPteacjf8dtrRVTiXKLH+krVormeVjSVVs+U7S2yD8o+xyKnFk+Z9l1/6Y03MknZzyj/I8ZZJjpkxafwGh9x+yy/+cSnj5z/2He/PXulpNtWvS9lTW42lOh2bnGCWZhcO7pstboeSsDgVvlAoIKKyp3EtGacsLNTBUpaf7UJ8s5aQXhGf311npeUC7w01SiS/Ldk2hTDlOzhiSUlW363EvCq9m99vUW6x9phndYzhLRnA9Trqp0NO1vSsFAAAAgCOhUIBCpd/Jbb+jldTD4UnnHa21P9Pf5jzPSdJrzc/0gf+OVswkUJE4aVp607+h31dPDaxfNpXmf1Hb/60cc3DuENP8ter+P+h2+gG/J5UsU3EgYNQD6WT1j6li59Yt84Sc+t+r3crmk5i0Pf1hG3ZuUothlVVHUqgwlJzs3KJdpapa7fpAkk/TdOS327rdHUdzICVVW23VB97Akd9uqbmaLtdXqrbU9utyciMke4unKZWcq9Wh4SxZlfV6HJwx9+5dAgAAAABHxS+ePHnyc3blmTNnsquAfcQzbtRCU/V2a86zlRwCUUNWuabQrKvd2j9AAQAAAADHTbEeFMBIJVVv12UqVK1M3oRBgdxyPHSkfpvgBAAAAADkIUCB6SlV1fKdeKiH1ZgoieTRE6lh2fJkyvHpWQIAAAAAoxCgwHRVmmr7jsyVMj0FEuWVODjRHJFqAwAAAABADgoAAAAAALAE6EEBAAAAAAAWjgAFAAAAAABYOAIUAAAAAABg4QhQAAAAAACAhSNAAQAAAAAAFo4ABY6+wJXlBoqy64+lSIFryQ2y6/cQuDIMI7O4KlLF4RHIHdpXo9jxAgAAADARAhQ42gJXhu0p3Glnt8xBpIa1bA+7j7W9E8qzF90OAAAAABhEgGIWovtquVfUtC7pDg+Bw6K7umNd0aZ7P7tluqKGLNuT5MhvVVXKbj+WKmq2fDmSPNtSo0C3ErPeVqfTSZamKtkCS+z//P829P/7fxn6t7cM/ft/32unK2r29rGjdt3MFgAAAAAwIwQoZmDX/1bfe0/1MsxugSTp8Z+0Ez7Nrp2ySI3LNYUyVW8v6mG6pGprGR92K2r6jqRQtcuNIzz0JdJP/93Vv79l6H/7f9f0/H/PbgcAAACwTAhQ4GgKrqsWSmb9tqp0nRhWaSqOUdR0/Yj28vk///tl/eErT/+HpP/lTV+/eXdZAkQAAAAA8hyvAEV0V03jkjaNZOhFdFd3rPj/m8YlNd272s2+RtJudD8ekpCU2zSuqOneHywb3Oxtv1Xr9w7Ysfv1bxqX1Gw8723bbXTrvKLWwM/Y93Wn+5r0MIiC7e/Vb93Vrp7rkZvaB+tm5j0ntxskQzZSx+dOY/Tx2bRb8Trv84Fjkz0+0nO1rG77pd3gppq9/b2iZvY9eiI1rsVDO66Oik5EDVl7JnvsJkvMDoOIFDRcWQO5JSy5jSkk4ewmo8xJDhE1rNH5K6KG3HR7LEtusH9rKut1mZK8azPoRdE9vtao45tRtPwY/q//z6s69X939Buvo79dr+h/yRYAAAAAsFSOV4AirX1XzfLX2kkNw3jpfa1bmbwIu40rulX+PDMk4aleep/rlnFTj1Jr52rM9kuSwh/0rfWRtrzUPoQtfV/OBkaK221c0S3766Hjs1P7XN8OBBsO5pF7RbfsVmrYzFO9HPUeka+tUJKzOnpoR6mqq44kedrOeyIOtuVJknN1oAdG4JZl1zyFA8N3Qnk1W+Xc6MGMBa6Mck1euj1hKM8u5wY6BnSPQbgl/4DXQVZwvaZQkkJP18ZIdFG0/Hgq+n/8f5p69XR2PQAAAIBldGwDFDu1r/XStLTW/kYbnRt6s9v727vXDzpEd/VttzeE87E+6Hyjjc43+sC3kgItbXUDApUPtdHdXj/brUErfryuu7jVU71tBzFW+3vifBgn6zcy7X+qHT/nAX9sz/Vo66mks3qznd7PG1qrWzqZLpo6Phvd93c+Hjg2I49P+LW+957qZM45eLk13Isi8rcUxydGhickSZVVR5Lk5UQogm1Pyq3DlFP31W73c0t02nHSSXnXCiWdPLhAbpIEtN5OJbBs+3LirhH7tufceVNSqK0pRyi6vTNk7tGLJaVoeQAAAABHz7ENUEiW1lof6rWSJJ3Sa2vdoMKftJs8q+36P+hlt2zzgk4kJU5UPtRa/Gw7IiAwD/u3f4Dzce/h/8S5M73gwcuHfx4oNh2n9Fr1Q72dF2yY0Ip/Q+7AOXg7DsqEfxoKUDx+GEoydf5cZkNWZTUJLGxnhhUEiuMTjrLxiUqzpWa1olL6GbpUURLrmKuocU1ekgS0mm5QqaLm7brMMQIPJXtNpqTw4ePspoMpVdXqdNRpjZmgtGh5AAAAAEfO8Q1QOBf1Wuq/J6qfJb/ifyarpFTvAMU9JTK5ErbiH9gXZ9/2p53Vm+sX+v8tnRrs3TCxbmDkqb4vxzkwHkUH6ZExiqXzlWyw45Ss1jfa6Hw4cBykSO2dgRV7qGi9bg4P80iGd5j19ZyH5bwcFIbsBVwPcSAmVK082BbDMGSU4yETUw88LFovd8jwst+IFgAAAADL7fgGKDAVJ6qf6QPf0kkzzoGxVf4oP4nokur2IEgP84iHd5has7ORnkgNKy8HxSIUCcQAAAAAwPIjQDEO851e7oPhJfsL/vFzovKh3NY32mh3c08kSUST2Tfmq6TySnbdHkq21uIIRTLMIxneYa5pKD6RTF0qOfLTOSg6nXjKzrnq7qepeqYtA0tzuA/IodYdCpKzHLVdBQAAAI4bAhQjndKJ7oNu+IMe7T2Uf6p2G9/qUP44XopzT7idj7Vizv+4dXUTP443uqEkO45QxMM8usM71mxl4xNR0mXBrK+rkt04S1Gg63FkZMBUElw+fqhQkrlvwg4AAAAAmC0CFHt4bbU/28X3l28OPmxHz/WocVN3cqa5PFE+0/v3zvboXgT9cv3ZNHaDm7rVnTlk6d1Xy7qpVvB8cB+j54rnjDyjE3kP8t0knd63agXDx++gSkkXirzZOfKUqlflJOXjIMTeM0mEW756l0IUyLWmlIPi3Pl4JovU7BtR0JBVtuMpTzN6CS5rl+U2gn6bChg9nOWAurkiLDeTgHSEouUBAAAAHDkEKPZS+VBrTjI7RtjSVjmVKLP8kbZqrWSWj4zKRfVGGXhf61YquWYzHdBIlXtZ+0ibxiXdsluSzupkd9rQJfcybOl7+6OBfdwsf60dSSfrb+cPfyldiHtY6Km+t+P9zj0+k6qsK859mZ2dY5RkFg7vmi5vhZKzmpMcsx8QUFhTuZeM0pYXSmbe+cokdCwnvSA8u7/OSs8D2h1ukkp8WbZrCmXKcXLGkJSqul2Pe1F4Nbvfpt5i7TPN6B7DWQ4ouB4n6VTo6drejZAmKD+WZw39+1uG/i1Z/rev4uP/f3xV7q37t+vjXSEAAAAAZo8AxT5ea36mD/x3tGJ2p/GMnTQtvenf0O9zp9K8oLfbH+vNbnBjpLhc/LAeO+m8o7X2P/UDHEvtgv5mj2PTndZ02ClZrRtac85OaTaRrP6wDXvMqR0qq46kUGEoOdm5RbtKVbXadTmp82Wajvx2W7fjyMIBlVRttVUfeANHfrul5mq6XF+p2lLbr8vJjZDsLZ6mVHKuVoeGsxxUZb0eB3PMvXujdBUtDwAAAODo+cWTJ09+zq48c6Y/RAE4nOIZN2qhqXq7JZ55M6KGrHJNoVlXu7VPgCJwZdiezHpbrWN2IKOGpXItlOOThBMAAACYNXpQ4IgqqXq7LlOhamXyGgwK5JbjoSP12/sEJwAAAABgTghQ4OgqVdXynXioh9WYKInk0ROpYdnyZMrxi/UsCWvlVH6Loxr0CeTm5A0BAAAAMHsEKHC0VZpq+47MlTI9BRLllTg4wZAFAAAAAMuEHBQAAAAAAGDh6EEBAAAAAAAWjgAFAAAAAABYOAIUAAAAAABg4QhQAAAAAACAhSNAAQAAAAAAFo4ABQAAAAAAWDgCFAAAAAAAYOEIUAAAAAAAgIUjQAEAAAAAABaOAAUAAAAAAFg4AhQAAAAAAGDhCFAAAAAAAICFI0ABAAAAAAAWjgAFAAAAAABYOAIUAAAAAABg4QhQAAAAAACAhSNAAQAAAAAAFo4ABQAAAAAAWDgCFAAAAAAAYOEIUAAAAAAAgIUjQAEAAAAAABaOAAUAAAAAAFg4AhQAAAAAAGDhCFAAAAAAAICFI0ABAAAAAAAWjgAFAAAAAABYOAIUAAAAAABg4QhQAAAAAACAhSNAAQAAAAAAFo4ABQAAAAAAWDgCFAAAAAAAYOEIUBwFgSvLDRRl10uSIgWuJTfIrgcAAAAAYHlMKUBxX3eMS9o0LmnTvZ/dOLnovlruFTW7dSfLncPwsB3dk2vdkGHckNX4S3br9ASuDNtTuNPObkk81vZOKM82CFIAAAAAAJbWlAIUMxDdVbP8ub73nupldtshEPl/lBfG/w5roWYSG4gasmxPkiO/VVUpu12SVFGz5cuR5NmWGvndLAAAAAAAWKilDVA8uv51LzCxUr+hjc43veXtSqbwEirZv5Zjxv8266am3+RIjcs1hTJVbzf3qb+ipu9IClW73BgxFAQAAAAAgMVZ0gDFfT30kn+a7+hvqqcy2w+B0kU1Wx+p0/lIreovs1sPLriuWiiZ9duq5nedGFRpKo5R1HR9Jt05AAAAAACY3EQBit3gru5YV1J5IT7XTrZQym50P1P+iprufe1mC85S4PfyQQTuv8gwbsgw/iXOyxD4sowR+SKi/1TD/Zfe9u7rLPeegqGuCP8pd6Bcslj3cnstRI2kHdY9RUq364YMy99jOEakxrV4aMfVsaITscp6XaYk79oYvSiihizDkGG5sxmeAgAAAABASsEAxXM9ci/plv21dsKn2Y25dhtXdKv8eab8U730Ptct46YepdbOxdb/KtvrhkZ25V37F1n2H5Wki1BY+19TgYH/lFv+V9W83d722K5C7z9kl/9ljyBCAeEfddn651S74nW1UfVHvrZCSc7qPkM7MkpVXXUkhVvy8+pNCa7X4n0OPV3LbQQAAAAAANNTKECx2/iv2koNvfiglxfiY61kykpxostva0lgwvm4V/4D30oKtLTVm/UjNRNIukdG+LVupWfxsO4eqOdFGO7KrP+DOu3fypSkcFeh+Vu1O38vR5K0q4ePUy8wf626/w9qd+LhGp3OR2rXTyQbd7Xlp3tc/JWavXLd+saxqzBU3K7OR2r7v+6tH6w/FvlbiuMThcITkqRz501Jobb2iVB0e1vILNZLAwAAAACASRQIUDzXo61uLwhLa63fqfuYPsqu/0OS6NLSWvNCr/yJyoda6z69e/fm3Ivi17qayQnhXL2okn6p80lSy76/UrNlq1r55cAMGaXqX/eCD+HD4QDCRJy/7+WqKJ07EQcHRtT/+GEoydT5c9kt+yvZazIlhQNRmBylqlqdjjqt/RJwAgAAAABwcOMHKKL72umOc3Au6rXM5mHpgEZLW+leEMalfk+Mngt6O69HxkBPjW+0MUZgZE/mCQ0+15/Y50H/LwoaviwrnVfiXzXU/AM5ofr6X/X/W/q/5fdIkSRFau+V8AMAAAAAgENo/ABFysnzv8quOqL+U67xz7Jrf1Q4mIQCAAAAAABM0UQBisKyvSAGlg/H6I2xGIHb7ylh1v8+lYeiSH6JaSupPLp7BQAAAAAAh9L4AYrSKZ1M/vny4Z8HNu02vs2ZZvSUTnQfpMMf9GjvnIxL6C+poRS/1tXqX/XzUET/M2d/56eb6HK/NBK5Hj9UKMnce1wLAAAAAABzNX6AQhd0vpfY8lu1gueSpN3gpm51Z+rIeG21O1vHU31/+eZgkCJ6rkeNm7rTiOtZPr9M9VT4n2onbY+Ce7LK/5GZdnS+SknDvO0gu2lfwbYnydSavc/MHFFDlmHIsFwVfxcAAAAAAIopEKCQXlt/J+lF8VTf2x9p07ikW3ZL0tle74oBlQ+15pyN/x22tFVOJcosf6StWiuZ5WM5VVb7033WynGCzLL9HwrVn2UjLWr8S34izfA/VO6ut+7pwJ1JKuuqm5K87YLBg0BxfGJN+8Unguu1OAgTerrWOHCLAQAAAADYU6EAhUq/k9t+Ryupp/OTzjtaa3+mvx2RlOG15mf6wH9HK2YSqEicNC296d/Q76unBtYvlYqttv/rgWCE6fxWfvu/6OqI/Z2Pkuw1U5In2x0/RBE1rsmT5FytDkybmqeyXo/323R0tbpfaQAAAAAADuYXT548+Tm78syZM9lVWDqRGlZZtdBUvd3SvjGEqCGrXFNo1tVu7R+gAAAAAABgnor1oMASKal6uy5ToWrl/fJEBHLLNYUyVb9NcAIAAAAAsHwIUBxmpapavhMP9bAaI3JbRGpYtjyZcvwxeloAAAAAALAABCgOu0pTbd+RuVIe2TOivBIHJ5qV7BYAAAAAAJYDOSgAAAAAAMDC0YMCAAAAAAAsHAEKAAAAAACwcAQoAAAAAADAwhGgAAAAAAAAC0eAAgAAAAAALBwBCgAAAAAAsHBMM7qH3cYV3ao9lXRWb7Y/k1XKlthDdFd3Ln+tnVA6Wb8ht3oqW0LSfd0xPtdOdrX5jj5o/U4nsusBAAAAADii6EExI7v+D9oJ43+/rN3Ro2yBZRPdVdO4pM0xljtB9sUAAAAAABwMAYoZOWH/tVbM+N8n62/rtWwBSdIFvd35Rhudb7TR+Vgr2c0AAAAAABwTDPHYw4GGeBSWGu6xDEM8gpvatFuSpBX/G71dyRYAAAAAAGB6jkkPiudqWckQBfd+dmPPbuNKMozhZs6QjOd65F7pD4OwbqoVZcvc152cIRGb1l3tZosewG50X3esblsvadO4oqZ7f6rvMZbUsJA7QZJ3o3ucjUtquoP73T++VzLHLnXccs7PRPsbNWQZhgzLFSNSAAAAAGD5HZMAxSmdKDJ+wjyT6b3wVDuXP9KW91Qvu6vClr4vZx+0Z2+3cUW3yp9rJ3yaWvtUL73PdSs3sDIn7btqluOkoF0vva91KyfgUMSk+xtcrymUpNDTtcacTxIAAAAAoLBjEqBI2Xk+8pf33YfJQ/DKqaHhFS+T2Tg2Ot/oA99K1j7Vjv88VWrGOSWiu/q2lrTR+VgfJO/Vb09LWwcMCExqp/a1XpqW1trfaKNzQ28m+Tfk3RsZRNjXAfa3sl6XKUmmo6vVmY7NAQAAAABMwbEJUJw4f3ZwRW94wnAviJPnfzW4QvEDcneq0BPnzuhksvrlwz8PFJulXf+HpAeHpbXmhV4Q5UTlQ605yX8OEhA4EEtrrQ/1WkmSTum1te7x/pN2J+zAcKD9LVXV6nTUaTVF+gwAAAAAWH7HJ0BRThJ/hn+Ke1A8/lPy8NvtBfFcuztxkZPlOBDRd1Zvrl/o/7d0qhegmJ/nerTVHebQ0lYmz8WWlyk+b87FgZlKTlQ/S3qSTJpcdMn3FwAAAAAwVccmQKFer4f4F/1H2/EMFZL0ciudcPGsTp7r/QcAAAAAAMzB8QlQDPR6uK+HXjyd55umpPAHPYr+rJepBI9LzXynl49hePlwoCfDkXDc9hcAAAAAjqHjE6DQr3TSVDwDhP9cLyWdXLuQ5Ep4qp3r95IhH2d0YqIhCbOWmokk/EGPJszrsIx2G98qGV2TcnT3FwAAAAAw7BgFKPp2al/rpc5qxT6lE/Zf66Skl14rDlAMTTG6PF5b7c8e8v3lm4MP7dFzPWrc1J1GelaR5dLLA5Ka/WQ3uKlb3Zk6Mg60v1FDlmHIsFwF2W0AAAAAgKVzjAIUqV/kpX5PidIFrXSnxFT+FKPj2m1cSSVy/LzfKyD8Wre66627/XwXwc1i5Ssfas1JZscIW9oqpxJHlj/SVi0JsiyrysXe1Ksvax9p07ikW3YrzvuRPgddB9jf4HpNoSSFnq416H4BAAAAAMvuGAUoMlON9madGAxc5E4xukRea36mD/x3tGIOTpt60rT0pn9Dv0+mQl1OF/R2++OBgNBJ5x2ttf+pF7jImnR/K+t1mZJkOrpaXcoxOwAAAACAlF88efLk5+zKM2e6XfEBAAAAAABm71j1oAAAAAAAAMuJAAUAAAAAAFg4AhQAAAAAAGDhCFAAAAAAAICFI0ABAAAAAAAWjgAFAAAAAABYOAIUAAAAAABg4QhQAAAAAACAhSNAAQAAAAAAFo4ABTCR+7pjXdKmcUWtKLvtiAtcWW6g47bbAA6LQO6nhoz3LDVeZLeB4wPg6IkUuJbcILv+qAvkWoYMw1Jj1jfme97/T/f4E6AAJhHc004oSU/1/fX72a1HV+DKsD2FO+3sltgDV8Z76RvfQO57hoz3DFnf5X+lYUq6x/6rKf11OGo4PsfHg215zyQpVM0/ouf7INfzLI7PQdoDAFmF7ycfa3snlGcbU3tIPhSCbXmh4u/z6zPc8f3u/6d8/AlQAJOoXNSKKUln9eb6hezW5Rbd1R3rijbdgoGVqCHL9iQ58ltVlbLbB6yo/Ep2XVakxqfxH5v8ZUq/7r1oyP3UOrw3zoe9/UDaPK7n11flnJYkU3W7kt0Kjg+6Zv15nHX9OAbGuZ+UpIqaLV+OJM+eQ2+CcUQNuZYlYxpP7KNUVuWYir/P12f0fT7W/f90jz8BCmAiF/R26xttdD6Tlf9JXV6P/6Sd8Gl27T4iNS7XFMpUvd3U+F+B53T+dPyvlVcXdKB+eijvWZhde3gc9vYDaXO5nitqftJR58uWqmPd2B43HB8kZv15nHX9OEbGuZ+sqOk7cW+Cy40RQxHm6PFDeeGsr/+Kmq2OOp2WqqMOy4EUuf+f3vEnQAFgf8F11ULJrN/e+wvw1fMys+v25cj/sqPO0MLNMwAAwLEz0f2kpEpT8TNyTbMc8XBsjHv/3zWl40+A4jAJXBmGkdtVKGpYMoz8cT9RkHQxMoxkseQ2RiU56XZJ6pY1ZFiW3CCvdKSGZciw4ihZFLiyeq+zZI14j8LtWRrP1bIuadMYXO7kHHNJUnBTm8YlNRvPpaibVDNZrJt6lN3hofJXxiqfN1RjtxG/tte2blnjkjbtVrzO+3xoX5qN5+lqEpEa1+KuXVfH+naSdPq8zg2sMHX+1YEVxSXjEa3vIulFN8lbsnzqKkgPB+mNXTRkfOHF6+7ZQ8NIcscxvmhk6rbkPsgp1x2i8mly/T9wZfVeZ8n67gDX9EHaL0kvAjW+svrlPm1o1GU6/v4WVOR8pcrndQWOvov3xX3QXROPRbW+i6QHrqzkmDceDO7PuMcntz1dYx+fGV4PKYP1Ju3JrXte7Um6cHfb815Oeya6nou2P3/IWP+aySh6fSai7zLHf2CZbFja8PWd40Ujvs5zPh/Z6zn/817w+KTkXnO5n4HEWO0poLvv77kj6umOTR8+/rltH7p2in7/FDPW63PPb6Rg6Hrbu/1jXc8TfR4LOED9Y5+vwop+nyTG+f4/wPU5Vv3SxO0f6/s5bez2pHT3/9NR+39AE9xPVtbrMiV51w72K37WWM8v3Wc1w5BhJ9e/Z6deEy/WwBiIos9TSflMnXnPgFK/TVYjkqJgcB8sV7mPeFL8PkXv/6d0/AlQHHFRw1LZrmW6GIXyarYu5w0QClwZ5VqScCURhvLscm5gpMt3LZVtT/23CRXmvEfh9hwFD++oWf48SaqZCFvaunxXu6lVPb3yqWEYYUtb5Zt6lC43L5GvrVCSs7pP1y5Jr1TV+rKjzifdMWolVafdlfin67I27CTJW+KZJ/u/Tf5F2PPAlbFRy9QdyvuinHvj2uV/Zan8haew97pQ4batyzk3YLNmalvWhq3avf4FFz6ryU5ubAZMuL+FzPJ8/XRd1hee4j0NVfuxocZ/6+9PuH196IYp7/jomSd7I+fmasLjM6vrIRiqN2nPtq1y3vlNzKo90XeWyl/UMl244/YctO60WbVfKnZ9Bl8ZKm9njv8UlF5dya4a9tNDhZLMV7O36sPX88jPe2HxQ1HuNffF5eGHrVm155Wqrl6UJE/beQ/5D7blSdLFqwN/Zyb9vEzbpOc3+Kose+h6S9o/6vunwPW8bOZ1vsb+Phn3+3/C63Ps+jPGbX/h7+cJ2xP4tfhv8DNP1/LqndRB7idLVV11JIVb8qfUpHk9v4z7PDWRh9dlle3BfQg92eWc+x8VvP9Pm8LxJ0BxpEXyt8I4cUq7o06nu7Tl1x0N/8kM5CZJUOrtdr98248TsHjX8pOehDXVvFCm46udvKbtO/GmLT/1R6Voe4rp9iLZc9kjyLK/U7Ja32ijEy8f1M9mC+R66bX0Umf1pn8jfm37nXhfwx+Ge0Wkyq/0yn+sN01Jaunfc3s4jKHyYa/dG74Vr3M+7q9LFrd6KvtKRf6W4u+nQl9PMxPe8+KxcO+346Egm3U5kvRsS373hvn1Zn+oyPvxtaiL/tAwktZb6YhwIPeL5PrfTOr+sqPOph8nlLt3LfeGXM9qqt0LZV701U5e007eM/xD+vovYKL2x7rHx9nr+EiT729BY52vCYX3PIWn62p/GSdm0r2aas/iIUP+RUnaUTvzHsPHx1f9tCRlb64mPD6zuB4U3zza95Lvz27bv+yo/X78S4We1XQ97+Z4Vu1RJP8PSXs209dlW/5q5vv8ANfz+O3v3rwmZVbH6xw89vX5oqFr9zS0v9226HRd7XFunPew89P+ZyM79nr4eh7R/gmOT/TdZdWeaeia62y25V/M/4s9fnuKqbwRH2fvx+G/4cGP8a+Uzhupv1GTfl5mqPj5NeWs+mqnP1+b3e+6/O+fsa7ng3wexzFJ/fM6X2N/nxT7/i98fRasv2fs9hf4fpYmb4+kip2co9OOrk56zczAufOmpFBbkz4hDyjw/FJp9rcnz0Jy/NRr4qWV1yNh7Oepkqqtfl3t+v7f55IUesn3s58847V9xS/1dC3nAe8g9/8HPf4EKI6lkirVppqZD0fUuCYvSYJSLaW2lSpq3q7L3ONCc/y2Ws1KL7NrqbIeX/ThQz3OlB2W356j46zebH8mq5I8/Jd+p/OOJD3Vy9yDY2mt/Zne7pW/IOtqHFR4+fDPg0Xn4PHD+Ev5/OAPd1Pkye51P0wvIyK6MlXfbKn6enK9vFLV6kVJCvXwp0zRAqLvkut/s6nqK6lr8ZWKmv+YXP8/jrj+32+r9W7q+n99PX7ofTbO9T9t8fFp7nN8DrK/xczmfMVM1f+xqlIqeZa5ur5PpN+RP3B8Kqr+XXID8FP/bB3k+Mzieujd5L6fOpaSSq9X1UpuUL1/y/+VcRbtGa2kyltNNad4ozrb9o95fXZ/4V69PRCEmEpbkrHW/etvsDu3JEU/7cTfw0Ndm8f7vBcX6Pp29wFn8JrTKyVV3m2OCMbMqD2vryYP5tuZvwuBtu/FAaL111NrD/B5mboJz2/l3Zaab1VUSh/nVyrJ8RxlzOt5yczzfI3zfVL4+3+/61OOVlPXZ+H6U8Zp/2j5388HaU+/p8N+CRTnq2SvxZ+7h/sflclN//nlYM9T+3Hkt1tqVpLaSxVVryb3PznH6SD3/wc9/gQojrSS7LU4glUrG7LchoJoxBdM70KMyw71PCjHXbjyLzRHq92Lvacb3Ut/YRVrT1GlamsoQjm0NBfw9en8fmimjxPn9+h94VzUa9nDWbkYR2h3nucPC5mZSO2d7LoFy3aTlHTu1fGix3t5/FNy/W9kAyWGjI3k+k89wPY5Wk3fvEvx9f9JR50vF/AHe8zjM/n+FjRmeyZyek32QN1j/IJzcVWV7INV9+byz+3eDfDkx2cW10P+TW5Pt/25N6izaI/i7/PfJN/nG4asrxoKXkzv+7xvVu1PjHt9dh8yt68PjOePHlyPexkMjZMu4JXy4C9wL3xtPRv81Tu+HnOm2xu3/UW9aGtH+fXvKaf8VNqjitZXzeFu9En3eefv0lPfHeTzMgMTn9+8HBSG7HvpMhkzO/6zNM/zNd73SfHv/72vz2zgvHj9XeO1v+j38+TtOS5m+/zSN+7z1IScVQ1VX0k+Xzv9+5/YYu//CVAccaVqS23fkWlKoVeTXS7HCVfc4YQr87gQx28Pjo9Rs3hM4ct4bJHa8++cskDHbX+LWtLjM/IhuN+DZJ5Kb7XUft+ReVoK79Vkb5TjhG1fHcHv89Q4czt1E19OkgAOPiAXlZy/boDsp4cKTztyTu/xq+Ws5eREWLTSG/Evculf0uNf3kc82C7N52WS8xup8WleDoojbGnO12Tf/73rMzXMI74+Ta29kf52mKz+osb/fp5Pew47nl/miwDFMVCqNNVqddRpx2OlTIUKPVvlJFtsUkrlFcXdAwfGV02/B8J47Slu9jkoFih6rpfZdXPRvS6OupLKv1LSPTYbKEkt7x78+l8Ox21/99H9tbhnSY/PyF8QH+vhQX/Fn1Dp9aZanyR5CVaT7/N7001qtxy6QwniG/6e047q77fVzHtAHltyvSXnN/jRk/mbda3/xkzGlScPEAs4v0v1q+krttZOp3sexOck++t0z9J8XiY4v92eOXLkZ76D4vw6R9Cyna+i3//d67M3zKP7nZHt6Tdh/RMY7/t5fu057Gb1/LJQUfb+p2ux9/8EKI6CKND1WphdO6wUj5VqdZKkl5nsqgdNaFLYPu1B367/g15KOrl2QSeyG7Oi+/oftdQMIAfUvS5yR/ccIXE32L1+0TpaDs3+vuiOhZ+d6Mc4EZT5G7v3K/hyHZ/uL4j7ZIn/VfkAv+If0Cvx2ObWl0lStQMmRVw2vTHa/5jc8Hdv2j9pDuZnmFC/G36g7XvxL66lN9Zkpo/jPM9vMqRleEz9IpWSfDHJ5/LBtryhX6c13c/LlL5/ip7fOCdFEnwpMsTmUJri+ZqSyb7/u8Mqkv3oDu9I/V3pmqz+A9jn+3nu7ZmHx0kvsEkSKOznCD2/dBNhmms51+lB7v8PePwJUBwm55IbhtRsGlHQiKeMyRSNBWpYrhpBNBjZi9qK5wRaUTl1NfYSmtQuD8/rOxXF2lPU0uagKCqTZ2I3uKlva08lndWKnZpl49wZnZQk71u1kgO6G9yNpyjtlxqWfl2w/6wgpSSE6m0vz21qIb0b7Wtq7DGfd7d7Zrh9ee95wudtzPYXtXT7m97P5MYpetCIp8zLFD2QP7cVDeQQcHU5SQaYftBZruPTvfGVvC+sgesgetCQ1R1mMJAlftYCNT511XiQ+T5/0ZaeKWc8fWJG1/N8hNr6MVD0IrPPUxBPRbmj9nfb8rrH7pWyVhRq60dfD5/NebhFekjLp+7g+PUXkYKv3JFZ/WcqyUcQ/uG63B+93JwLE31eZvz9M+n5HZiZ4UUg99N9clAUNevP41j1T3C+ZmzS7//SW1flJMM84iBTfl6kSesfX7Hv5wO150VD1nuGjE9HJTZfjGA7GV5jDx//AYEryzBkGFb+TIXS5M8v6ee2YGTl85PJMxEFri7XkvufnON0kPv/sY//CAQoDpOSrTVT6iZpMQxDZbsWTxnjxFlYsx6Gnmp2WeVMwktPklnPdIssVXU7ThUrr2YPvmbfD+94CrVn2UR31TQuaTNZbiW9FHbs/rrmpNOApoVf61b6fexW3Hui/k+DyTZLF7RiStJTfV/ulv06nqLUSaYSzZN+nf1R731Gtr+bQdib1S9po2bxsKZzA9ztdqlQtS/KA+9hpaeVfKWq26vJ9b9tqzyr9hQ1bvuLWrb9Te9nMsa//EXy/XYx//ttIs9qKmdyCIQanp1h2Y5P6a3byXSog9dBfIwkc/WgwwyKe/jMU+2L8uCx2Ui+z0d1u5/V9dy9Se4el+RXb++L6dQfP2BK4bat8kZmn9/rJqHLvqqoULVtL07kKkmKZ2wIt+Njmp1itJAJjk/l3WRKy2deMn69e47Lsu/tGQafoSQZ4TNP3r3RD62FPy9z+f4Z//x2Hxj1rNa/1jZsec80OMTooGb1eewas/7C52vWJv7+T2ZZuXdNl/8Qps51xsT1j6/Q9/MB2hP48TnSs+xU3YsUKH4+XtPez8eRGtfiewApVO366LvciZ5f0s9tdnngmco6yANV1EiCKsmzYNKL3rP3qT+sDbS/bCf3P/Xbyp2IZOL7/3GP/2gEKA6VkqqttuqO2V9lJlPGrKbLdVW07tflmKnykkzTUd1v587BGyeBGX7NdBRvD6STpqW19g251VTvCUnSKVmtG3rTSc0IYiZTlOZeD13x69acs3FPin11sxd7sg9lDo+Sqp+05V804xu+PcRJpepyTu9Xcp7Gb39Ry7W/8X7WL6bacjqZEvSNdLkJvb4ej8HN7Kt52pG/2VYr71euJTw+8TjilCQHQl77Z6ui9ZxjY+7bntldzzPVncpPkk6bQw+JcRK6A/yC2P2lOfNLceWN7sNx3hSjs1ZR88ucc3XalPN+JqA3R72H91HJMaUJPi8z/v4pen5fqaq1WY+743dLJN9Vt5PeBtMx68/juPUXPV+zN+n3f3xOQ4XPRgfQdID6x1P8+3nS9lTsenzOTuf3FlmEqHEtnt3n6n7Ji0uyr3avOVP11VHna9Lnl/i5zXf2u/4XwzQd+e292z/J/f/4x3+0Xzx58uTn7MozZ85kVwGYteCmNu2W5HysjeaF7NYFi9SwyqqFpurtVn6kFQCOpHhGhdozyXm/M/xL7otA7oYd56jYbC3swf3YeODK+MKTuZr/oAXgGIsasso1hWZd7dbkD8hHSuDKsD3J8ScY6l7w/n9Kx58eFADGUFL1dl2mQtXKB/iVEAAOnWQWAUlSNv9EpOinJInfqLwbmJJI0XdukpNgeX6tBbAsArnleGhW/fbkD8dIK3L/P73jT4ACwHhKVbV8J+7qdZinVAKAQpJx5ZK87Jju98oqJ0n8hsZ1YzoeuP1jve3FN7+bTY41gJRIDSvuyeb4Y/zSj/GNdf8/3eNPgALA+CpNtX1H5sr8pvsCgEWrvJuMjx8an23KvFiXv9lhuMEcxHkYGEYDYFh5JX44LjyKAfsb4/5/msefHBQAAAAAAGDh6EEBAAAAAAAWjgAFAAAAAABYOAIUAAAAAABg4QhQAAAAAACAhSNAAQAAAAAAFo4ABQAAAAAAWDgCFAAAAAAAYOEIUAAAAAAAgIUjQAEAAAAAABaOAAUAAAAAAFg4AhQAAAAAAGDhCFAAAAAAAICFI0ABAAAAAAAWjgAFAAAAAABYOAIUAAAAAABg4QhQAAAAAACAhSNAAQAAAAAAFo4ABQAAAAAAWDgCFAAAAAAAYOEIUAAAAAAAgIUjQAEAAAAAABaOAAUAAAAAAFg4AhQAAAAAAGDhCFAAAAAAAICFI0ABAAAAAAAWjgAFAAAAAABYOAIUAAAAAABg4QhQAAAAAACAhSNAAQAAAAAAFo4ABQAAAAAAWDgCFAAAAAAAYOEIUAAAAAAAgIUjQHFYRXd1x7qkTeOSmo3n2a35ovtquVfUNOLXdZc7QbYgjqwHroz3DBnvWWq8kKRA7nuGjPcMWd9F2dLFywMAAADAhAhQHFK7/g/aCeN/v6zd0aNsgazorprlz/W991Qvs9twDK2o/Ep23V6KlgcAAACAYghQHFIn7L/Wihn/+2T9bb2WLZDx6PrXvcDESv2GNjrf9Ja3K5nCOEbO6fzp+F8rr5ayG3MULQ8AAAAA4yFAcViVfqe3W3GAwa2eym7NuK+HXvJP8x39zb7lcWS9el5JXGs8RcsDAAAAwIQIUBwq93Unkz9i07ikTeuudrNF5yFwZRiGDHc4iUXUsGQYhnI2KQoacq14e7xYchuBRmY0iBpyrW5ZQ4ZlyQ3ySkdqWIYMq6FIUhS4snqvs2SNeI/C7TkKTp/XuYEVps6/OrBiUNHyUUOWYciwXOVcAgAAAAAw5BdPnjz5ObvyzJkz2VVYCvd1x/hcO9nV5jv6oPU7nciu70m9bt+yBQSuDNuTHF+d5uA4kahhqVwL5fgdpTd11+cx6221qplhA933yDP0vpEaVlk11VVf2VLNG36f7HsUbg/GEriGuqeN4wgAAABgHPSgOFQu6O1e7oiPtZLdPCDd2yIV1Ai/1q2F9b6I5G+FkkzV2x11Ot2lLb/u5OxPINf2JDmqt9v98m1fjinJu6ZGXjeHsKaaF8p0fLWT17R9J9605ad6RhRtTzHdXiR7LqkuJkXLL7PKej0eGmI6ukpwAgAAAMAYCFBgCZRUqTbVzDzIRo1r8mSq3m6qWkptK1XUvF2XqVBbfl6EQnL8tlrNirqvKlXWVTclhQ/1OFN2WH57UECpqlano06rKXKwAgAAABgHAYoja0RvC/MdfZCawWNjWsM9xlKSvWZKClUrG7LchoIoP8AgSY8fhr2yQz0JyjWFksKHeeEGR6uVbHChpGqro04n/cBcrD1FlaqtVK+MEUtqiErR8gAAAABwlBCgwFyVqi21fUemKYVeTXa5HCewdLNJKSO1h5JtTN/47QEAAAAAzBIBCsxdqdJUq9VRpx3nejAVKvRslZPZN5JSKq8oJz/E9HsUjNee4ormlChaHgAAAACOEgIUmL4o0PURM2MMKMW5HlqdJOlluKV0Solz5+PhF6PyTEzdPu0BAAAAAMwOAQpM7tz5eKaG1GwaUdCQVbaVPzFooIblqhFEgz0TorYUStKKyulcmPaaTElh7bLcxiyGXBRrT1FFc0oULb/UooYsw5BhuaLPBwAAAIBxEKA4RHYbV/rTg46aOnSe04aWbK2ZGkhkWbZrCmXKceJpPbMehp5qdlnl9LCFck2eJLO+PjjjQ6mq2/HUG/Jq9uBrDEOGYeVPM1pAofZgbMH1OImpQk/XDnqSAAAAABwLBChwACVVW23VHbO/ynTkt1tqrqbLdVW07tflmKnykkzTUd1vq5UzrWecxHL4NdNRvD0YT2W9HveuMR1d5TgCAAAAGMMvnjx58nN25ZkzZ7KrAAAAAAAAZoYeFAAAAAAAYOEIUAAAAAAAgIUjQAEAAAAAABaOAAUAAAAAAFg4AhQAAAAAAGDhCFAAAAAAAICFI0ABHBHRg4bcr1w1HkTZTWOLXgRqHLAOAAAAAJjEL548efJzduWZM2eyqwAssweujC+8/v8v+uq8W0mX2Ff0naXydthfMUEdAAAAADApelAAR0DwYyo4IUn3bBlfBYPr9jAUnJCke9savwYAAAAAOBgCFDii7uuOdUmbxhW1lm20QuDKcgPNvFljBilygxOSdPq8zmXXAQCAMQRyPzVkvGep8SK7bZlFClxL7v63DwAwEwQocDQF97QTStJTfX/9fnbr4gSuDNtTuNPObok9cGW8l76hCeS+Z8h4z5D13eiQRuVdX87p7Nr9gxQjgxMyVf/HqkrZ1cCy636G9rjucZxEanwaf4emF/dBthwwZQ+25T2TpFA1f4HfR4XvKx5reyeUZxsEKQAsBAEKHE2Vi1oxJems3ly/kN16MNFd3bGuaNMtGPiIGrJsT5Ijv7Xfw/+Kyq9k1+2louYnxYIUewYnNluqFnr/PbxoyMo8HAwuh+TXpRcNuZ9auccSE+B4LtZhPf69h63M8qkl97s59Ew7qg7r9bDMXl9N/iabqtvLkM9p3PuKipotX44kz7bU4EMFYM4IUOCIuqC3W99oo/OZrL0jAcU9/pN2wqfZtfuI1LhcUyhT9XZT49+qnNP5JOiw8up+OzJ+kGJuwYmj5KeH8p7lHTNMhOO5WEft+D8L5W3bKn/qZnLnlFT9pKPOl/HSXjUHtiJx1K6HpVBR85OOOl8u29/Uce4rKmr6Ttz743KDwB+AuSJAAcxDcF21UDLrt1UddT8gSa+e18Fun/cPUgTzDk68UlUreTjofBn/KqPTdbV762bwngCONHO13Qs6dL7sqP2+E393PvNk0wsA6Jv0vqLSVByjqOk6HykAc0SAAvMT3NSmcUnNxnMpuh8PkzAuxYt1U4+GQvTP1bIuadO6q11Ju8FNNa2kvHFFzcZ97eaV79aZLHdG/WEdak/qddn2JGU3jUvatFvxOu/zofdqNp6nXtQVqXEtHtpxdc/oRMpQgkpT518dWLGHvYMU9jyDE5NIunBb30XSi26SsW43bldBdjjIUHlrrPJ5XZmj7+LX9sanp7uTd6dxvWcPdS/PH8dbXPTAlTWwv5bcB3l1Rwq+y5R9b0QX96HjU/R47lM+kdv2bHvmfDz1IlDjq32uh64Xjcy+jjr2Exqr/nhsuPVdJD1wk6FRlhoPBl8/cHyGztce+1v0+PeGZ2V7JXR1x7IvfphW6fWmWu878X/+3B7+HBQ11vnqKvB5TEQPkiEVY5Yv1p4xFb0epH5Oj0/jX9UHP/eWrPQ+zO36meD4D5UffO1ge4rUXzDnydDnN/W67Of3oCa4r6is12VK8q7RiwLA/BCgwPw9vKNm+fPBYRJhS1vlm3qULpfyyL2iW3ZLL3vP1k/1sva5vs0NCBTUa09qXdjS1uU4MHJgka+tUJKzuv/Qjm5vg0+6OSq63ZOLBg/2CFIMWaLgRNpP12Vt2EmSscQzT/Z/G3Gj1CufOpHPPNkbo26Ol0l8U1v+wlM4sL+hvC8uD928B1+VZW9nyirp4p4TeJEOcjxT60aUD76y8tu+baucPMjMm6ltWRu2avfGuB4euDI2apl9DeV9Uc4NZBVWtP6frsv6wlPc8lC1Hxtq/Lf+68Pt68P7MIvr/5Wqrl6UJE/beQ9YD7blSdLFq8vx/dH9pfjZQz3Obiui4Pkq+nmMvrNU/qKWGVIRl7+cF5wr2J558Yc+96HC9D7M6fopevyDrwyVh8qPVrT+iRT4vi3sIPcVpaquOpLCLfkHbggAjIcABebupdfSS53Vin9DG51vtNH+WG+aktTSv+cFHMKv9b33VCedj/VB5xttdL7RB74lSXq5le5FcUpWK96+0flGH9TPpioZrdueN3vteUcrkhT+0O9FUfmwV+9G8t5yPu6vSxa3eipVcyzytxTHJ/YNT0zZOEGKJQ1OSArveXHOjveTrtyb9Xh4yLMt+Tm/KnXLO73yvuqnJcnTtbyb/nG83ux3I+/+OnvRH+ha3vmyo9ZbY/aMGSH67rJqzxSfj277v+yos9mWf3ElW1ySKWfVV3sz1Y7NZPjMvWtDAQ0d4HjuW/6BK/teONT29vvxL296VtP17sPJnI6nCl0Pgdwv4h5O9c30sU8+OyOO5/iK1x/e8xSerqvdHRJ1r6baM0f+lx35FyVpR+281+y3vxMc/8obcTnvx+EHseDH+Fd35415f7eN8NPDOKgz9EtxEcXPV7HPYyT/D8nnJV3+y7b8VSf+2zNgkvaMaYLroedZTbV7ocyLfm+4XjupI/yD33uons/1U+D4v2jo2r34Nenj3217PPww+zexQP0T5jwZ+/t2Ac6dNyWF2iJCAWBOCFBgASyttT/T25XkYb50QdbVJODw8M+DRRMr/g25zQs6kfz/ROXtOKgR/mkKvRzO6s32Z7J67fmdzjuKe2kc6Ge42OOH8c3o+cnvmA+govXf7HGDdMBfrmYrCZ68ntwcv1LV6kVJCvXwp0xRKZ4dZbOlZq98RdW/S26Yf5rCiZyZQNe3uw8sqf2VpFdKqrzbHDpHlXdbar5VUSm9/pVKcnxGKXo8xyvfe8h4f7DtpdervS733r9N4VfAwsa7HqLvrsmTqfpmU9VX0se+ouY/1mUq1NaPk7d+svq70/z2k9mZq+v79MAab38Le301eRDbzvTECLR9L36gW399YMMCRPFQg2SYgvN3+82SNNok52uyz2NWSZW3mmpmggGTtGdenPfbar1b6R3r0uvrcVAs3YNlDtdPoeOfBLHM1dsD36u5bU8Uqn9i433fLkLJXpMpKXyYPTIAMBsEKDB/zkW9lr17rFyMfznaeZ4TcLB0vhs86On2lvhQr2W2FOb8fmimjxPnx+t9sb9I7Z3suvkZPVtH4p4ta1pdVKctJ3hy7tW9gi2rqmSDLd2b42mMSZ+VF23tKH9/R8sbE23Ivpctl5JT/97Hc5zyyUOGHK3mPWR0j3/OTf/MjXk9PP4plBSqtjE8btzYqCk84AP+RPWfXpM90HZHV/N+xU4bc3+Lq2h91Rzupp90zz9IMOAgwu1y6liW46EGksyLvpp51+KYJjpfhT6PJdm/iX+Rrm0Ysr5qKHgx+uxM1p55cLSaDqZKqd4D6Zmq5nH9FDj+yTCgcPv6QH6H6MH1uBdbbu+bAvVPaqzvWwA4HghQAEfUvsGJRLjMQYrjoPuL3qvDt8X5IjU+zRsTvUC5N/UamM5uOUVq53fampJZ1z8fpTfiX1DTPWHinjMjAlMLYJ525G/Gv+hPbpLzVfzzWHqrFc86cloK79Vkb5TjBJNfZZMuTtKe5TPb66fg8U/lxbBTQZ/yyN43BesHABwYAQosh+i5XmbXHQkllYcHFc/c6OCEKTPngfHIBim6vRMOgbF/Be3+0idH/sAY9m5+ggUY2UPisR6O/FVyAYauh5LKv9LQePShZeKH3lnXv4+h/Z3QK7bWTqfHw8c9Z/YfdjI72WlGW580VUkPgZjIBOdrws9j6fWmWp8keWZWHZkKFd7LJpWdoD3LaJbXT+Hj3x1aEgeIek47qr/fHu59U7h+AMBBEaDAUtj1f9BLSSfX+nkmjopugql5Dd/cKzhR32ypNSJx5lEMUkQ/xglKzd/Y+3cjftHNBTFn3ZkHhsZo54t+ih85zdX14S79c9ftIbFPlv5flfc//nOQdz3E3ahnN45/1vXvJW9/J1NK8lkk+/FgW55Mrb1xsFqXUdHzdeDP4ytx7onWl8n3ciYpYtH2LKfZXT9Fj38vp8c/JgGibsDhk+Zg/p9u+YL1H0mPk15+i0mkBeAYIkCB+cvkmdgNburb2lNJZ7ViZ3NNLKFzZ3RSkrxv1QpyZh3JKCVdKLztcR4/D2a/4EQ8xnX07B6HOkiRGWcfPXB1OUk+OXAj3AsI9LOvRw8a8RRv/VLD0q97MMWHhXSX40/dwfHoLyIFX7m5WfrTmfL1IpD76ZTHRI+lO55e8r6wBo5L9KDRT1qYl6V/Vsez689tRQNjzPOvh27383D7stzvsl3sD27W9feMe/13FT3+ST6L8A/X5f7o5Y6ZH/LAlfWeIeM9K/caXkaTnq/xP4+BGp+6ajyIBut+0ZaeSdKKyqnjOml7Cit6PRQ1yfVTwPjHX0mgJFD0InMO9lCs/jmZ0+cr2Pbi7xE753sEAGaAAAXmL/xat4xL2kyWW3Yr7j1R/6ehZJWFRHfVTNdbeypJ2rH765p505gWVbqgFVOSnup7+6Ne3SPrr6yrbkryxvuFfFLjBSe65hikeNFIbqIMGe8lQYBnNZV766Z0czVQZzymONRwtvZed+NU4rnyF7V4isaL8awHudKv+yKdoM+QNek0ponKu8mUdc+8ZDx6UvdGWfa9zKCE5IFlYH83bHnPlDt8Z9ZKb91OprMcPC7xMY274g91m9Zsj6eUHJ/MGPP866Gq26vxr9Tetj1wDcXLAa/PWdffNe7131X4+CfJDp958u6NCDoNiNT4t7gNUqiaP8XvlCIGvn+M3nek98WI/S14vib5PD585qn2RXmw7o2avO4v9enCBdszscLXQ1FFr5/xFD3+pVfjHwzCbVvljcw5eK+btDRVvmD9ha+3ic3r8xUojk+sifgEgHkhQIGFO2laWmvfkFs9BL0npGQGkRtac87GPSn2VZK9Zsa/kLszuol44BYITnTtE6SYyk3U4vSS5g3NflBS9ZO26hfN/qrTyRSNb6TLZcWv8y+a8Q3rVFXU/DKn7tOmnPeHH6hbm/WB89bd19t7TSk7M8lxWXUybY/HdA8f/64ZHc/X1+O2nB6sdfT10E1aWJeTec20zLr+PHvtb6z48e89rI2V3LAk+++614Sp+pQeSOeh0Pkq/HmsaD2nbnOPz0uh9kys+PVQVLHrZ0xFj393OlHF36/ZIEOctNTt/5hQtP65mc/nK2pci2dbuZpNHgoAs/OLJ0+e/JxdeebMmewq4OCCm9q0W5LzsTaaF7Jbj7hIDausWmiq3m6pOuW/9MFXed1N9wpOpAVyP41/ERrkyB+YLm5JPXBlfOFJF/3lTxYHTNs8r//kvczV/AdpYE8Lv37iGTlqzyTn/c5wz64XgdwNO85RMdbfziMuasgq1xSadbVbBCgAzA89KIC5KKl6uy5ToWrl1K8zM1PkBmtET4plmXkBwIJFir5zk5wijq4u5OESh9eyXD/JrEJS3KaBbZGin5Kkvpk8IMdTILccD32s3yY4AWC+CFAA81KqquU78VAPKz2V3MFV3k0FGE47BYITXZkgxWlH9X/kpgQ41h64ybj5ssrbXvywsnkIelVhOSzd9VPRajI1qJfNAfJeWeUkqe9QHpBjJ1LDinuSOP70e3wCwH4IUADzVGmq7TsyV6Y97WJFze6UaZ80CwYnuqZRB4CjKB53XzTwCcSW5fqpvJvkyxnK52HKvFiXv9lZ0PCT5VJeiYMTzeMdqQGwIOSgAAAAAAAAC0cPCgAAAAAAsHAEKAAAAAAAwMIRoAAAAAAAAAtHgAIAAAAAACwcAQoAAAAAALBwBCgAAAAAAMDCEaAAJhHd1R3rkjaNS2o2nme3AgAAAAAKIkABRPfVcq+oaV3SnSC7Md+u/4N2wvjfL2t39ChbAAAAAABQCAEKHHu7/rf63nuql0nAYRwn7L/Wihn/+2T9bb2WLQAAAAAAKIQABTCJ0u/0dusbbXS+kVs9ld0KAAAAACjoF0+ePPk5u/LMmTPZVcAUPdejxh39+1Yr1WvhrFbqv9ffVC/oxGBh7QY39e21wbInnd/r983BsruNK7pVeyqZ7+iD1gXtuv9VW97TeKNp6c3bH8oqJYWDm9q0W6lX5ztZv5EKQNzXHeNz7WTKxO/3u+F2F2lPurzO6s32Z6ltqfd1PtZG80L/RZJ2o/v6H5e/1U6Y1D3i+AAAAADAMqMHBebsvu5YH2mrlg44SNJT7dQ+1/8YyAHxXC3rkm7Zw2Vfep/rlnEzP/dD+IO+tT7qBwMkKWzp+/IVtaJ0wTmZYXt2G1d0q/x5Kjih/Y8PAAAAACwhAhSYo+dqWZ/3kkuerH+sDzrxMImN9g2t1S2dTJXebfxXfd8t6/TLfuBbSYmWttz7qVd0xfkkTtZvZMo/1Y6fzLhR+TB+3843+qB+tvfKFT9pT7IMDt+4oLd72z7WSmrL3sZozySiu/q2lgQmCh0fAAAAAFg+BCgwP9H9XnBCzsdy08M5Sqf0WvVDWZXuiud6tNUdDvHOwHCFE5UPteYk//Hu5fcScD7uBRdOnDvTC3y8fPjngWJzM4P27Po/6KUkydJa0eMDAAAAAEuGAAXmpv9ALa2sDuZRGJIOZqycGsqlcOJ8t9dDSw+HpgY9qzfXU/WXTg30zJi/WbQnFcBRS1vGJW2mli0vUxwAAAAAlhwBCizAWZ08l1032snzv8quAgAAAAAcMQQosABP9fJxdt1oew+DKBbsOJLMd/q5PIaWD/VatjwAAAAALCECFJibE+X+9LU72/skb0wPg9h5rt2BjenhDWd0IjVV51G02/h2eGpTndKJbpbO8Ac9OuBsIAAAAACwaAQoMD+Vi/2ZL7zP1XTvpwIPz/WocVOtXj6JCzrfTfQYfq1vG92yz/UoPbtH/e0D9xAYDJzczQRD5qffjv7sHrvBTd3qztSR8dpqfzaQ7y/fHAxSRPHxvNM4wCwhAAAAADBHv3jy5MnP2ZVnzvQf2ICpiu6qWf66lywza8X/Rm/3ZvK4rzupaUmHmO/og9bvegk0dxtXkof5s3qz/ZmsXs+K+7pjfB73QnA+1kYzm6AztT3jZP1Gb/aNfv17SLWpeHtGteOsTprxVKXZ9j9yr2jLG92mdPsBAAAAYJnRgwLzVfqd3PYNrTlnB2eyMM9qpf6x/qYXnJCkC3q7NbpsOjhxMBf0dvtjvel0ZwZZlLgdK2Z/zUnnHa21/6nf8yTjteZn+sB/RyvmYNtPmpbe9G/o9wQnAAAAABwS9KAAAAAAAAALRw8KAAAAAACwcAQoAAAAAADAwhGgAAAAAAAAC0eAAgAAAAAALBwBCgAAAAAAsHAEKAAAAAAAwMIRoAAAAAAAAAtHgAIAAAAAACwcAQoAAAAAALBwBCgAAAAAAMDCEaAAAAAAAAALR4ACAAAAAAAsHAEKAAAAAACwcAQoAAAAAADAwhGgAAAAAAAAC0eAAgAAAAAALBwBCgAAAAAAsHAEKAAAAAAAwMIRoAAAAAAAAAtHgAIAAAAAACwcAQoAAAAAALBwBCgAAAAAAMDCEaAAAAAAAAALR4ACAAAAAAAsHAEKAAAAAACwcAQoAAAAAADAwhGgAAAAAAAAC0eAAgAAAAAALBwBCgAAAAAAsHAEKAAAAAAAwMIRoAAAAAAAAAtHgAIAAAAAACwcAQoAAAAAALBwBCgAAAAAAMDCEaAAAAAAAAALR4ACADC5wJXlBoqy64+lSIFryQ2y6wEAADAOAhTAsRGpYRkyjMGFhylMLHBl2J7CnXZ2yzH1WNs7oTybzxUAAMAkCFAA2FvUkGtZMnjiQlrUkGV7khz5rapK2e3HUkXNli9HkmdbatCtBAAAoBACFMCxUVK11VGnEy/tupktkO/xQ3lhmF2LYy1S43JNoUzV201VspuPtYqaviMpVO1yg6EvAAAABRCgAAAUE1xXLZTM+m1V6ToxrNJUHKOo6TodjwAAAMZGgOJQSXIIWPGvclHgyurlFLBkNUYkqosactO5ByxLbpApGTVkGYYMw1X+/XQgN3mfoW7L49QfF5yo/VGQDDHo5U2w5I4oKxVpT1GTtb9oe8be38CNt+cMvYga8etzNo2nW7dhyLC9eJ1np9oUL9bQxbBMZni+jvXnJVLjWjy04+pe0YkJr8/ZtX9OxzNRWa/LlORdoxcFAADA2J48efJzdul0OixLubR/rpv6WWb957pj/ixpaDHr7cHX+M5Qmd7i+ANlfSde7/jZ903Vk3lNkfonaX+7nl8ur2zx9hRdire/aHsK7e+oc5KqJ/dcjlNmr3bv1aalWmZ7vo7t56Vd/9nca3u27pxyo6692bZ/Dsczs8TXiPlzvT28jYWFhYWFhYWFZXihB8VhFNZU80KZjq92N5+A78SbtvzUr3WB3CSJXb3d7uUe6LR9OfFPewO/7lZW4zq87eGfNYPt+Fd0ZzU92rxY/T1jtz+SvxVKMlVv93MndDpt+XVHK6kqYxO2p6ix21+0PUX3d4Yqzf77J/smx0+1KV5ae/2Cvo/ur+h7Lnk/sRc1o/N1XD8vkb+lcGjfpmE+7Z/d8Rx27rwpKdSWn9cQAAAAZBGgOKQcv61Ws9LLnF+qrKtuSgof6nGyLmpck5cksauWUg+SpYqat+syszfOlVU5kuRtZ7qtB4qftxyln0kK158yTvtHK6lSbaqZeTg+SHuKGqf902tP/v5ifDM5X8f08/L4YfzQfv5cdsusTLf9mtHxzFOy1xRXu3+tAAAAIEBxSDlarWRvjrszNPQz6scPEqFq5Zxfpss1hUM3zhWt101JngZ+FA625Uky6+sD2fqL1981Xvulkuy1+BfIWtmQ5TYURPkPHDpQe4oar/3F21Nsfw+7UrWV+lV6xNKcxq/0szpfx/HzEqm9k1k1NfNov2Z2PAEAAHBwBCiOrMkeJLq/+KW7rcfd1U2t2emb+snqL6pUbantOzJNKfRqssvlOKGdm01SN5/2jG+y9oy/v5iuCc8Xn5epWrb2j98eAAAATAMBiiOrpPKKcsZP7/MLdcnWWvzElXRbT7qrm2saeN6atP4JlCpNtVodddrx2G9ToULPVjnJxp+Umlt7xjN5e8bb38NvbjkoxjLh+Tp2n5fu62Zntu0vbrz2AAAAYBoIUBxhkyVo63ZrTrqtd7urr9m98dpdk9V/AKV47HerkyTBC7eUfuu5t2cfB27PPvs7UhToei3MrsU+Jjtfx+/z0n1d7uiJcYx7fc6o/RPbpz25Hj9UKMmcX8IOAACAQ40AxRHWS9BWuyy3MX6X5FL1qpyk23rU3pHk6GpOQrhJ6x9foIblqhFEg3VHbSmUpBWV07nxZt6eYoq3p9j+6tx5mRqcrSAKGrLKtuI5JKYk/T7B/nsxrvnloBhP8fMVO26fl1LShSJv9pIBha/P+bR/fMXakyd/uA8AAABGIUBxlJWquh2nppdXs1XOdp83rPxp+FTRqhM/WFzeCiVndSDZX8/E9Y/vYeipZpcH6y7XcpMQzqM9hUzQnmL7mwwvSCUKLNs1hTLlOMnUoGlRQ1aq3nLyK7Zn99dZ2QYp8z52eWAfcssfVhOcr9gx+7x0Z7wYmr0ko+j1Oa/2F1CoPUNGDfcBAADAKAQojrg4yVtdjmlmN+2psupIChWGkpOeKzFj0vrHU9F6Tt2m6ajut9XK+5V6pu0prlh7iu5vSdVWW3UnVd505Ldbaq6myx1U/D6+Y8a/iB9hxc5X3/H6vPSHtdh75ggpen3Oq/3jKt6etHgaVMm5Wh0a7gMAAIB8v3jy5MnP2ZVnzpzJrgIAIBGpYZVVC03V2y3t86x+/EQNWeWaQrOudosABQAAwLjoQQEAKKik6u26TIWqld29h3ocO4HccjyUpX6b4AQAAEARBChwDAVyh8ar77UcfCw7cOSUqmr5TjzUgyk3E5Eali1PphyfniUAAABFEaAAAEym0lTbd2SulOkpkCivxMGJOU5AAwAAcGSQgwIAAAAAACwcPSgAAAAAAMDC0YMCSEQPGrr+45Z2/pzdUtSK1v5uXfbrJbq9AwAAAMCYCFAAkoKvLNn3wuzqgzldV/sTsvgDAAAAwDgIUAAPXBlfePG/TztyfpUtUNCfd+Q9S4IdF3113iVbHgAAAADshwAFjrlIjU/Lqj2bbjAh+s5SeTuU5Mj/sqnp1AoAAAAARxdJMjHCfd2xLmnTuKJWlN22YIEryw007WaZr57LrppY6Y01mZKkHbVfZLcCwDII5H5qyHjPUoPvKeCQiBS4ltwgux4AjgYCFMgX3NNOKElP9f31+9mtixO4MmxP4U47uyX2wJXxXvqGO5D7niHjPUPWd9MOaWApdM/5V9ytYR4iNT6Nv1PSi/sgW+4QeLAt75kkhar5C/z88L2NIyNSwzJkGIPLdIMJj7W9E8qzp10vACwHAhTIV7moFVOSzurN9QvZrQcT3dUd64o23YKBj6ghy/biYROt/ZJPrqj8SnbdrEVT79XRfxhylX8fktzIf9qYwXsv2IuG3E8tAg/ArLy+Kue0JJmq28swEG0R39vAEogaci1LxlgRh4qaLV+OJM+21Dhyf/wBHHcEKDDCBb3d+kYbnc9k7R0JKO7xn7QTPs2u3UekxuWaQpmqt4vkdDin86fjf628Ou0d6YseuDLeK6s8MpCAwn562E82CiyNkqqfdNT5Ml7aq/FgrsOpouYnHXW+bKm6VIGB+XxvA9NXUrXVUacTL+36mN8Pjx/KC4v8vauo6Ttx76fLR/AHCgDHGgEKHA7BddVCyazfVnWv+9VXzye5H+YneuCq3JsF5Lyml8kCAI6BBXxvA4depak4RlHTdX4ZAXCEEKA4TIKb2jQuqdl4LkX342ESxqV4sW7q0VAI/bla1iVtWne1K2k3uKmmlZQ3rqjZuK/dvPLdOpPlzqg/fEPtSb0u256k7KZxSZt2K17nfT70Xs3G89SLuiI1rsVDO67uGZ1IGQoUmDr/6sCKqRgMTjjyP9lv6MkcvWgkCfCS5VNL7oOhi6Q/jCQZJhI9cGX1XmfJ+m5EQtKx6y+gNxbd6E/9es8eGu8/clz6i0CNr6x+uU8bo3u0zKL90myP54uGrPeM/Yf85CU9HKd+aeL2Rw+SITm982TJHVFWKtKeAiY+PpGC79L7OUb7x7VHjpTou/h45eavmMXxkVLDxgaX3DakFD6/Sp2PT0edj4w5fW/vLckhYCXXf+DK6uUUsGQ1Ruxz1JCbzj1gWXKDTMmoIcswZBijjkcgN3mfoW7749QfF5yo/VGQDDHo5U2w5I4oKxVpT1GTtb9oe8be38CNt+cMvYga8etzNo2nW7dhyLCTv3eenWpTvFhDF0NfZb0uU5J3jV4UAI4OAhSH0cM7apY/HxwmEba0Vb6pR+lyKY/cK7plt/Sy14PwqV7WPte3uQGBgnrtSa0LW9q6HAdGDizytRVKclb3H9rxSlWtLzvq9AIF3e7YxbowR9mHuxzDwYkiQ09m7IErY6OWJMBLPAvlfVHOfVDq8r+yVP7CU9h7Xahw29blbEBgwvpnydS2rA1btXv9CzF8VpOdl59jTu2f+vF8paqrFyXJ03beA+WDbXmSdPHq4PU+bv0Z47Y/+s5S+YtaZkhOKC+nrDR5e/Y14fEJvirL3k7vp3rtLx+kPZOa1fGZUOHzmwj8mkJJeubp2h7lpvW9PW2+a6lse+r3vA8V1mxdzj4wBq6Mck3ewOEJ5dnlwQfbUlVXHcXXZ95pDJLr07k62FNw3Pozxm1/1LBUtmuZIQahvJyy0uTtKWrc9hdtT+H9XWbdayrckn/Img4AoxCgOIReei291Fmt+De00flGG+2P9aYpSS39e17AIfxa33tPddL5WB90vtFG5xt94FuSpJdb6V4Up2S14u0bnW/0Qf1sqpLRuu15s9eed7QiSeEP/V4UlQ979W4k7y3n4/66ZHGrp1I1xyJ/S3F8Yj6P/8FXhsobe/xKv+zBCQVyv4h7nNQ3272x8p1NP06Id+/a8K/rkvSsptq9UOZFX+3u+Pr3HUlS+Ac/9ZA/Yf3jeL3Zry95b130++uSpfXWcD+V8J6nUKac95M2bdblSNKzLfkD7Zlh+9NmdDwrb8R1eD8O33gHP8bXpPNG+mosVn/P2O2P5P8hjBMtbqbPU1v+qhN/FwyYsD1jKn58JMmUs+qrnW7/ZpyE7qDtKW62x6d4Do2i57evYse/7uq0o6s5n9mlFtZU80KZjq92N5+An1z/W5nPb5K8ud5u93IPdNq+nPin7YHeEJXV5PrMiVAE28n1OfC3rlj9PWO3P5K/lZzfdj93QqfTll/PO78TtqeosdtftD1F93eGKs3++yf7JsdPtSleWvv0HD133pQUaosIBYAjggDFoWRprf2Z3q4kD/OlC7KuJgGHh38eLJpY8W/IbV7QieT/Jypvx0GN8E9T6OVwVm+2P5PVa8/vdN5R3EvjcaboBB4/jG8mzs85uUO4Xc4NUiwmOOHJznTJjhc7/sUtJfrumjyZqm82VX0ldWPzSkXNf6zLVKitH4f3S5Kc99tqvVvpDVMpvb6u+mlJzx6qeyoPUv9smapvttR8PWnTK1WtXpSkUA9/6peaZ/tncjxfX00enLcz3cQDbd+TJEerr/fXFq4/ZZz2j1ZS5a2mmpkH04O0ZywFj48kVd5tqflWRaX0r/WvVJLrZ75mfnymJv/8Duj1jJjHd+T0OX5brWbq+q+sq25KClOf30ZyvtpNVUupY1GqqHk7OV/pB8dKcn16Odenp/j6TB2swvWnjNP+0UqqVJtqZh6OD9KeosZp//Tak7+/h0HJXlN8WPY/qwBwGBCgOIyci3ot+ze0cjGO/O88zwk4WDrfDR70dHtLfKjXMlsKc34/NNPHifPj9b7YX6T2TnbdbFXebctPHkyyQYrFBCeKefxTKClUbSMbzDBkbMRdrsOf8m5kHK12H+57ur+29vdz8vpnLDusQdK5V4d/HZ5f+2d1PCtaXzWHhzEkwxfM1fWBa7J4/V3jtV8qyf5N/AtebcOQ9VVDwYvRDwSTt2dcxY5PLC8HhSH7Xrbc7M3++BRV7PweHY5WKznXf6ujTif1+X2YnK/yYN4AwzBklJPzNfDgWNF6Pbk+0xGKZHiHWc98fgvX3zVe+6WS7LXk/JYNWW5DQTT6/E7enqLGa3/x9hTbXwDA/BGgAIaUcoIUwYKDE478Xtfq9JJ0Q++J1M7vRDMls65/1pat/ZO1p/RG/ItZehhDPHzB1Nob6Zv6yeovqvRWS+33HZmnpfBeTfZGOU6o+VU26dyc2jP28ZHipJF5OSgWYT7Hp6jxz+9xM1kAvfuLd3qYRzy8w9Sanfn8TlB/UaVqS23fkWlKoVeTXS7HCSnd7PmdT3vGN1l7xt9fAMAiEKA4KqLneplddySUVJ7roNCubJDCXmBwooiSyr9SznjxzPLupK2fdf2ztmztn7A9r9haO50expAMXzi9JnugF8mE9U+g9HpTrU866mzGuQlMhQrv2SoPJCmdU3vGPj6SHlxX7ZniIGCmTd3P//zM6fhMYLzze9x0/z5l8xlklmbmfJVsrcURiv716Uky1zQQn5i0/gmUKk21Wh112nEuBlOhQs9WOZlNIyk1t/aMZ/L2jLe/AIBFIEBxROz6P+ilpJNr/TwTR0U3AdRUeo0WMhikkJY9OBGLhzXMbpz6rOuftWVr/2Tt6Xa7T4YxdIcv/MYemuZ2svoP4JU4N0HryySpYyZJ6XzaM/7xiX6Kf4I1V9dVyQYvZulFoOvbYXbtnI7PAexzfo+byRIUdocZJMM8usM71oavz8nqP4BSnIuh1UmSTGZmh5h7e/Zx4Pbss78jRYGu14Y/vwvx+KFCSea8E3UBwIwQoDiMMnkmdoOb+rb2VNJZrdjZXBNL6NwZnZQk71u1gpxZRzJKSReKvKzns9cNUpgyD0FwQup3bw+3L8v9bvpdVmddf8+r5+MZAO5dU+PB9N5lbu0f06TtKb11VU4yjCF+yM6fKWHS+scXqPGpq8aDaLDuF23pmSStqJx68J99e2LjHp+ugZlJXgRyP51SDor0dZw8yEcPGrI2hhPcao7HZ3zFzu+AFw1Z7xkyPnUzCSGnJHBlGYYMy53OzBET6CUorF2W2xj/fJWqyfW5HShqJ9dnToLGSesfX6CG5aoRZM5v1FY8R+yKyqlmzb49xRRvT7H91bnk85uaDSQKGrLK+Z/fiaXfJ9h/L9LyhwcBwOFFgOIwCr/WLeOSNpPllt2Ke0/U/2koWWUh0V010/XWnkqSduz+umbeNKZFlS5oxZSkp/re/qhX98j6u5m7h7Kez0tJlXdbah2C4IQUZ86/vWpKCuVt2ypnE+29Zx1smsJZ19/V7aavULUvygPvkTe7ytjm1f5xTdyeZJaJe9d0+Q+hdHE1//qcuP7xPXzmqfZFebDujVp+Uso5tCc23vHpBgT0rNZvy4Yt75lkns6WTj10J0s56QXhfdFfN3B9pq/jJPFl+YtaPCXuxcEMMnH5GR+fou0ven5TAj9OUqhnnq4d5DM7QrDtxfWHnmqXF9Q1v1TV7XhqCXk1W+VsokbDGhE8qWjViR9IL2+FkpN/fU5e//gehp5qdnmw7nJyfjNJO+fRnkImaE+x/U2G46QScZbt5PPr5Hx+o0YcNEuWctLLwrP766xsg5R5H7s8sA+55XtGDQ8CgMOLAMURcNK0tNa+Ibd6CHpPSMkMIje05pyNe1Lsq98d1nYXE6I4bOKkdnU5p83spqmYdf2xkqqfJL1XspsOaD7tH9+k7am84UgKFT6TnDdyH2+kA9Q/norWc+o2Tzuqv99WK6fXwmzb0zfW8XmlqtZmPR6ukDBPO/I327r9m2m0L76O6xdTdZ125G+21HwjXa5vXsdnPMXPb1fFrsef3dN7916ZVKWZTRK8GHHSxbocs9j5qqwm12coOem5RTMmrX88Fa3n1G2ajup+W628Xh0zbU9xxdpTdH9Lqrbaqjup8qYjv91SczVd7qDi9/GdYn/v4mlWJedqdWh4EAAcVr948uTJz9mVZ86cya7CMghuatNuSc7H2mheyG494iI1rLJqoal6u6Whe4iJxRn8a88kc3Xvm+1CHrgyvvCS2TcOSc8LADhkAteQHf/0rXaLhzQcI1FDVrmmkGsfwBFDDwocEiVVb9dlKlStPM3xzN2s+fGY76nkOngRyP237owf50XaKgCYvihwdS35qs1LMAkcXYHccjzUpH6b4ASAo4UeFIfJse5BkQhcGbY35V/LArnvTTnhVcJ5v6Pm69m1AIBJRQ2rN7ZfkkzHVytnKkksUiDXKPJ3ddq9I4+yfo9Sx2+JSx/AUUMPChwulabaviNzpTyl4IQkVdTcTKbMmxqT4AQAzFAvbwBPaDhmyisEJwAcXfSgANJeZKYem0hJpVHT7gEAAAAAchGgAAAAAAAAC8cQDwAAAAAAsHAEKAAAAAAAwMIRoAAAAAAAAAtHgAIAAAAAACwcAQoAAAAAALBwBCgOkd3GFW0al7RpXFHr4HNhzl9wM2n/Jd0JshsBAAAAAMcZAQoAAAAAALBwBCgAAAAAAMDCEaAAAAAAAAALR4Di0HquR40raiY5HTatm8N5KaK7ve13gvj/d6ykvHFJTfeudjMvkaTd6L7uWN18F3HOi6Z7P7esovtqual29Mrf1aNse0ZJ5abYNG7qUXY7AAAAAODII0BxSO1c/khbtad62V0RtvR9eY/kk+27apa/1k7YX/XS+1q33PvpUtptXNGt8ufaCZ+m1j7VS+9z3RoKHtzXnfLn+t5LtUNKyn+trfIYyTyju2rareQ/Z/Vm+0O9likCAAAAADj6CFAcSk/1MpRO1j/WB51vtNF+RyeTLTvX8ntF7NS+1kvT0lr7G210buhNM9ng3esHHaK7+raWBCacpO7ON/rAt5ICLW1lAhoyLb3p3+iV3eh8ow/qZ5ONT7XjPx8sP+C5Wpe/7gU3VvzPZJUyRQAAAAAAxwIBisPK+Vhu9YJOSFLpd/pbJ1kf/ik3QCFZWmt9qNdKknRKr611gwh/0m7Sy2HX/yEJFlhaayZ1SzpR+VBr3frTAQ1d0NutD2VVTvXKStKJ6u+1kvz75cM/p7YMeuR+pO+THh0n6zf0diVbAgAAAABwXBCgOJTO6s31CwNrTpwfDjgMcC4ODJ04Uf0s6fHQ7bXwXI+2usM6WtoayClxSVte6sUDnutR46aaqdwWm8bn2skWy3h57Uq/TudjudVTmRIAAAAAgOOEAAUO4L7uGB9pq9bSy1Rui3G8TOW4OHn+VwPbAAAAAADHDwGKI2L3YTqp5QGZ7wzklBhc+kksH7n9nhK9fBidb7TR+bg3xGOUFb9f5mXto9HJPQEAAAAAxwIBiiPhvh72hmCc0YmJEk2e0oluxCD8YYwpQp9rtzeOw9LfdvNhSFL0PDOrR54LeruXfFPasbMzhAAAAAAAjhMCFIfe80xPhrcnnqbztdVuwOCpvr98czBIEcW5Ju40urNypAIa6USbQTyd6f4BCkmVD1MzfrS0ZeXPQAIAAAAAOPoIUBxKT/V9uZuQ8qN+sknzHf3+IMkmKx9qzUkCBmFLW733uKTNcpJrIlV8IKCRlL1lf62XOtub9nQ/J6r/1J/yNPxa3/YCIAAAAACA44QAxSFywv693nTO6mT3gT5x0rT0pn9DG63fDUz3OYnXmp/pA/8drZjdng2x7nsMBEAqH+oD3xoIRpx03tFa+7P+tKf7OiXr9ju9OshHAQAAAADH0y+ePHnyc3blmTNnsqsAAAAAAABmhh4UAAAAAABg4QhQAAAAAACAhSNAAQAAAAAAFo4ABQAAAAAAWDgCFAAAAAAAYOEIUAAAAAAAgIUjQAEAAAAAABaOAAUAAAAAAFg4AhQAAAAAAGDhCFAAAAAAAICFI0ABAAAAAAAWjgAFAAAAAABYOAIUAAAAAABg4QhQAAAAAACAhSNAAQAAAAAAFo4ABQAAAAAAWDgCFAAAAAAAYOEIUAAAAAAAgIUjQAEAAAAAABaOAAUAAAAAAFg4AhQAAAAAAGDhCFAAAAAAAICFI0ABAAAAAAAWjgAFAAAAAABYOAIUAAAAAABg4QhQAAAAAACAhSNAAQAAAAAAFo4ABQAAAAAAWDgCFAAAAAAAYOEIUAAAAAAAgIUjQAEAAAAAABaOAAUAAAAAAFg4AhQAAAAAAGDhCFAAAAAAAICFI0ABAAAAAAAWjgAFcCwFcj81ZLxnqfEiuw0AAAAA5m/yAEV0V3esS9o0LqnZeJ7dmi+6r5Z7RU0jfl13uRNkCwJz8sCV8V76QT2Q+54h4z1D1ndRtvTR8WBb3jNJClXzD9EH8LieLwAAAOAYmDhAsev/oJ0w/vfL2h09yhbIiu6qWf5c33tP9TK7DVi4FZVfya47wl5flXNakkzV7Up26yFwzM4XAAAAcAxMHKA4Yf+1Vsz43yfrb+u1bIGMR9e/7gUmVuo3tNH5pre8fRifj3BEndP50/G/Vl4tZTceIRU1P+mo82VL1UP9oH9czhcAAABw9E0coFDpd3q7FQcY3Oqp7NaM+3roJf8039Hf7FsemJNXzyuJs+Ew4HwBAAAAR1bBAMV93cnkj9g0LmnTuqvdbNGjIHBlGIasRiRFgVzLkGEki+UqyB3yHilouLLSZQ1LbiPQYPFAbrfuwJWVlGsEkqJG772sRs6bpLbHbbHk5jcG4zp9XucGVpg6/+rAihmLcylY30XSA1dWN8/CA0kvGklCy7w8C5GC71xZyfZufgb3u+z1FpdtDJSLF/dBtlwiyfdgfRdJL7pJNZPlU1fBIpNrFj1fUSP+jFmuDlHGDQAAAOBY+cWTJ09+zq48c+ZMdlXivu4Yn2snu9p8Rx+0fqcT2fU9qdftW3aJBK4M25PpOJLnKUm50WfW1W5Vle5YHriG7G5vkSzHV6fZHc8SyDVs7WTrduqq79RU66+Q32mqNwomaVOugfpxuARy37O1c9GR7qWuh4t11f9cU+1Zd4Uj/8v+9RB8Zci+192WcdFX59309RCp8Wk5VVfMeb+j5uuD66QkQPGFJzPbpq7TdbU/Gbz+l1X6c2nW22pVD0OrAQAAgOOlYA+KC3q7lzviY61kNw9I97ZIBTXCr3XrkPW+CD1PoUzV/bY6nY467bocSQq35A/9TG3Kqftqtztx2U5HnbYfl/euKdshIvQ8hWZd7U63TE210JHf6ch3JGlH7d5rArm2J8lRvZ20pVu/mV//MokaVqpXyYjF7f++XbT8URDe8xSerqv9ZXI93Kup9syR/2VH/kXF18NAzwVTzqqv9mZHnS+TZbP72muZKURLqn7SL9deHW+wRHgvuf7fbyf1J9f/sy35i+xFUUBlvR4PDTEdXSU4AQAAACylggGK48pUvd1StZI82JSqWo0jFHr4eLBkpdlSs1pRKf0MVKok5fOYqt+uqqRzOp88L5r19X6PiZSocU2eTNXbTVXTb1CqqHm7LlOhtoYjJjhUTNX/MbkekuSP5mr+9SBJlXdbar5VUSmd6PKVilYvpv5/YKbqmy1VX0+uuVeqSf2hHv6UKbqsSlW1Oh11WqneSAAAAACWygwDFCN6W5jv6IPUDB4bh2G4h3NV2R9dz3WjCUPyclDsMezDXJM9UPfoX3gfPwwlhaqVc3oSlGsKJYXZiMkSKVVb/V4fo5bUEJWi5Y+E02uyB2bVcHT1rfzrIZaXg2KPYR+TuHh1aKaPc6+Ouv4BAAAAYDIzDFAcR5EaVll2zVM4NGD/oCK1h5J/4HiLc0rY257CTF4JAAAAADhsCFBMU3A9SW7pyE/noOjlkziIksorSoab5PQkOAQ9CormlCha/th5cD1JeOnIT+eg6OWrAAAAAIDDgwDFFEVJFwezvq5uuoppioeVkGcCsein5HpbXVclMwQDAAAAAA4bAhQzEG756oUQokCutUcOigJK9ppMSWHtstxG0H+PQ6JoTomi5Y+r8A+p6+1FIPfTKeegOAqihizDkGG5OsZ9bgAAAIClVihAsdu40p8edNTUoYdg2tBZ6QYQFNZU7g5BKNvyQsmcRk7BUlW363EvCq9m99+jt1hLPc0opqv0RnK9Paup3E2QuWHLeyaZyQwgA140ZKUSaZa340Qp3hf9ddZ3R/MCCq7HSWQVerrGhwQAAABYSoUCFNhHqapWuy4nFYwwTUd+u63ba9OIUMS9Ctp+Xc5UIh441F6pqrVZl5MKRpinHfmbbd3+DddHWmW9HgdzzNGz5AAAAABYrF88efLk5+zKM2fOZFcBAAAAAADMDD0oAAAAAADAwh3SHhSBXMPWFPJOjmCq3m7p8PYE5/hMVyD3vRkfz82Wqod2Jg6ODwAAAICDowcFAAAAAABYuEPagwIAAAAAABwl9KAAAAAAAAALR4ACAAAAAAAsHAEKAAAAAACwcAQoAAAAAADAwhGgAAAAAAAAC0eAYmYCuZYhw7DUiLLbpixwZbmB8t8mUuBacoPsegAAAAAAlgcBilkJtuWFkhSqdn2G0YHAlWF7Cnfa2S2Jx9reCeXZBkEKAAAAAMDSIkAxK5VVOaYkmaqvV7JbpyNqyLI9SY78VlWl7HZJUkXNli9HkmfPoTcHAAAAAAAT+MWTJ09+zq48c+ZMdhWWTqSGVVYtNFVvt1TNj070JT0tZNbVHhnMAAAAAABgMehBcVgF11ULJbN+e//ghCRVmvIdSWFNsxxxAgAAAADAJI5RgCKQaxiyGlGcVNJIElgG8VCJOKFlsn1ApKDhykq2x4slt5GXlDJSY6BcvIzM/RC4/feMukk1k8VyFQy/QSJS41o8tOPqWNGJWGW9LlOSd62R03YAAAAAABbnGAUoEg+vy7I9hVKcwHK7ocblWpLQUgpr15WOJwRuWXbNU5hsj4XyarbKIyMPBT28Lqts99ogSQo92ZdHBBIiX1uhJGdVhbJblKq66kgKt+TnVgwAAAAAwGIcuwBF6HkKzbranThxpLyaaqEjv9OJh0BoR+2Bh3dTTt1Xu91Rp5Ms7e5rr2WSTpZUbfXLtetmeuNIoecplKm6307qr8f1jwgkRP6W4vhEofCEJOnceVNSqK28igEAAAAAWJBjF6CQTNVvV1XSOZ1P4gdmfX1kT4RKs6VmtaJSeiRFqaJVJ/X/A0sSXVaSNylVk/pDPXycKSrp8cNQkqnz57Jb9ley12RKCvMqBgAAAABgQY5fgMJckz2QtmG/PA55OSgM2V623AE4V4cSXcY9HfJEau9k1wEAAAAAcLgdvwBFIfFUnsM5KAAAAAAAwDQRoNhLMpWn5MhP56Do5atYhJLKK9l1AAAAAAAcbgQo9hAlYynM+rq66SGWQTfR5URpJB4/VCjJnCSBBQAAAAAAM0KAYgzhlt+f7jMK5FpTzkFRUCnpQuFtF5/mNNj2JJlaG0zEAQAAAADAQhGg2EN3xguFNZW7CTLLtrxQMvNyWEYNWalEmuV4fIg8u7/OGpyXdDKVddVNSd62ioUoAsXxiWyiUAAAAAAAFosAxV5KVbXadTmpYIRpOvLbbd1ey4tQzEtJ9popyZPtjh+iiBrX5ElyrlZFfAIAAAAAsEx+8eTJk5+zK8+cOZNdhaUTzzBSC03V262haUqHRA1Z5ZpCs652iwAFAAAAAGC50IPi0CqpersuU6FqZXefoR6B3HJNoUzVbxOcAAAAAAAsHwIUh1mpqpbvxEM9rEY/keeASA3LlidTjj9GTwsAAAAAABaAAMVhV2mq7TsyV8oje0aUV+LgRLOS3QIAAAAAwHIgBwUAAAAAAFg4elAAAAAAAICFGztAYRhGdhUAAAAAAMBUjB2gAAAAAAAAmBUCFAAAAAAAYOEIUAAAAAAAgIUjQAEAAAAAABaOAAUAAAAAAFg4AhQAAAAAAGDhCFAAAAAAAICFI0ABAAAAAAAWjgAFAAAAAABYOAIUAAAAAABg4QhQAAAAAACAhfv/A5g3w7HnHzq7AAAAAElFTkSuQmCC;" vertex="1" parent="1">
          <mxGeometry x="349.5" y="1720" width="1064" height="464" as="geometry" />
        </mxCell>
      </root>
    </mxGraphModel>
  </diagram>
</mxfile>
